<?xml version="1.0" encoding="UTF-8" standalone="no"?>
<!-- Created with Inkscape (http://www.inkscape.org/) -->

<svg
   width="700"
   height="350"
   viewBox="0 0 185.20834 92.604163"
   version="1.1"
   id="svg1"
   inkscape:version="1.3.2 (091e20e, 2023-11-25)"
   sodipodi:docname="reseptit-text-15.svg"
   inkscape:export-filename="reseptit-text-14.png"
   inkscape:export-xdpi="960"
   inkscape:export-ydpi="960"
   xmlns:inkscape="http://www.inkscape.org/namespaces/inkscape"
   xmlns:sodipodi="http://sodipodi.sourceforge.net/DTD/sodipodi-0.dtd"
   xmlns="http://www.w3.org/2000/svg"
   xmlns:svg="http://www.w3.org/2000/svg">
  <sodipodi:namedview
     id="namedview1"
     pagecolor="#ffffff"
     bordercolor="#ffffff"
     borderopacity="1"
     inkscape:showpageshadow="0"
     inkscape:pageopacity="0"
     inkscape:pagecheckerboard="0"
     inkscape:deskcolor="#505050"
     inkscape:document-units="px"
     inkscape:zoom="0.70710682"
     inkscape:cx="91.21677"
     inkscape:cy="287.08534"
     inkscape:window-width="1850"
     inkscape:window-height="1016"
     inkscape:window-x="0"
     inkscape:window-y="0"
     inkscape:window-maximized="1"
     inkscape:current-layer="layer1"
     showgrid="false" />
  <defs
     id="defs1">
    <filter
       style="color-interpolation-filters:sRGB"
       x="-0.029242641"
       width="1.0584853"
       y="-0.08353233"
       height="1.1670647"
       inkscape:menu="Non-Realistic 3D Shaders"
       inkscape:menu-tooltip="Satiny glass effect"
       inkscape:label="Frosted Glass"
       id="filter89">
      <feGaussianBlur
         in="SourceGraphic"
         result="result8"
         stdDeviation="1.7636021"
         id="feGaussianBlur83" />
      <feComposite
         result="result18"
         operator="xor"
         in2="result8"
         in="SourceGraphic"
         id="feComposite83" />
      <feComposite
         in2="result18"
         result="result16"
         operator="arithmetic"
         k2="0.5"
         k1="1"
         in="result8"
         id="feComposite84"
         k3="0"
         k4="0" />
      <feComposite
         in="result16"
         operator="atop"
         result="result6"
         in2="result8"
         id="feComposite85" />
      <feOffset
         in="result6"
         result="result17"
         id="feOffset85" />
      <feDisplacementMap
         result="result4"
         scale="100"
         yChannelSelector="A"
         xChannelSelector="A"
         in="result17"
         in2="result16"
         id="feDisplacementMap85" />
      <feComposite
         k3="1"
         in="result17"
         operator="arithmetic"
         result="result2"
         in2="result4"
         id="feComposite86"
         k1="0"
         k2="0"
         k4="0" />
      <feComposite
         operator="out"
         in="result2"
         result="fbSourceGraphic"
         in2="result17"
         id="feComposite87" />
      <feComposite
         result="result14"
         operator="over"
         in2="fbSourceGraphic"
         in="fbSourceGraphic"
         id="feComposite88" />
      <feComposite
         in="result14"
         operator="in"
         in2="SourceGraphic"
         result="result15"
         id="feComposite89" />
    </filter>
    <filter
       style="color-interpolation-filters:sRGB"
       x="-0.00680962"
       width="1.0136192"
       y="-0.033020434"
       height="1.0660409"
       inkscape:menu="Non-Realistic 3D Shaders"
       inkscape:menu-tooltip="Satiny glass effect"
       inkscape:label="Frosted Glass"
       id="filter96">
      <feGaussianBlur
         in="SourceGraphic"
         result="result8"
         stdDeviation="0.40392352"
         id="feGaussianBlur89" />
      <feComposite
         result="result18"
         operator="xor"
         in2="result8"
         in="SourceGraphic"
         id="feComposite90" />
      <feComposite
         in2="result18"
         result="result16"
         operator="arithmetic"
         k2="0.5"
         k1="1"
         in="result8"
         id="feComposite91"
         k3="0"
         k4="0" />
      <feComposite
         in="result16"
         operator="atop"
         result="result6"
         in2="result8"
         id="feComposite92" />
      <feOffset
         in="result6"
         result="result17"
         id="feOffset92" />
      <feDisplacementMap
         result="result4"
         scale="100"
         yChannelSelector="A"
         xChannelSelector="A"
         in="result17"
         in2="result16"
         id="feDisplacementMap92" />
      <feComposite
         k3="1"
         in="result17"
         operator="arithmetic"
         result="result2"
         in2="result4"
         id="feComposite93"
         k1="0"
         k2="0"
         k4="0" />
      <feComposite
         operator="out"
         in="result2"
         result="fbSourceGraphic"
         in2="result17"
         id="feComposite94" />
      <feComposite
         result="result14"
         operator="over"
         in2="fbSourceGraphic"
         in="fbSourceGraphic"
         id="feComposite95" />
      <feComposite
         in="result14"
         operator="in"
         in2="SourceGraphic"
         result="result15"
         id="feComposite96" />
    </filter>
  </defs>
  <g
     inkscape:label="Layer 1"
     inkscape:groupmode="layer"
     id="layer1"
     transform="translate(-14.589992,-17.586334)">
    <g
       id="path1"
       transform="matrix(1.1992632,0,0,1.1992632,2.470765,-118.27206)"
       style="fill:#f4f4f4;fill-opacity:1"
       inkscape:export-filename="path1.png"
       inkscape:export-xdpi="96"
       inkscape:export-ydpi="96">
      <path
         id="path3"
         style="color:#000000;-inkscape-font-specification:'Bungasai, Normal';opacity:1;fill:#f4f4f4;fill-opacity:1;stroke-width:1.00013;stroke-linecap:round;stroke-linejoin:round;stroke-dasharray:none"
         d="m 30.256788,131.45022 -5.17e-4,5.2e-4 v 5.1e-4 c -1.662906,0.0332 -3.399111,0.39903 -5.206917,1.07229 -1.848118,0.65884 -3.715227,1.70499 -5.615678,3.12281 a 1.190744,1.190744 0 0 0 -0.271301,1.62729 l 0.566374,0.82579 a 1.190744,1.190744 0 0 0 0.218591,0.13901 c -0.439965,0.22247 -0.92022,0.38739 -1.30638,0.68161 a 1.190744,1.190744 0 0 0 -0.312643,1.53686 l 0.17415,0.30489 a 1.190744,1.190744 0 0 0 1.056266,0.4687 c 0.0014,0.004 0.04909,0.12388 0.04909,0.37672 a 1.190744,1.190744 0 0 0 0.0036,0.092 c 0.02418,0.31443 0.02514,0.6479 0,0.99994 -0.027,0.37815 -0.06887,0.75598 -0.12299,1.13481 -0.05028,0.32193 -0.111387,0.58016 -0.167948,0.74983 a 1.190744,1.190744 0 0 0 -0.01964,0.0667 l -4.136699,15.41198 a 1.190744,1.190744 0 0 0 -0.0057,0.0196 c -0.340381,1.36157 -0.485436,2.53906 -0.376721,3.58997 0.103964,1.00497 0.412585,1.91952 0.983919,2.6541 a 1.190744,1.190744 0 0 0 0.0217,0.0253 c 0.560245,0.6803 1.326615,1.17065 2.197282,1.46089 a 1.190744,1.190744 0 0 0 0.04289,0.0139 c 0.810192,0.23628 1.692482,0.36254 2.6448,0.3943 0.585179,0.03 1.170278,0.0308 1.755449,0 a 1.190744,1.190744 0 0 0 0.06253,-0.006 c 0.567406,-0.0597 1.162589,-0.13374 1.785421,-0.22272 a 1.190744,1.190744 0 0 0 0.985986,-0.8909 l 0.17415,-0.69505 a 1.190744,1.190744 0 0 0 -0.275436,-1.09192 c -0.469772,-0.51451 -0.573262,-0.85907 -0.560689,-1.14825 a 1.190744,1.190744 0 0 0 0,-5.2e-4 1.190744,1.190744 0 0 0 0,-5.2e-4 1.190744,1.190744 0 0 0 0,-5.1e-4 1.190744,1.190744 0 0 0 0,-5.2e-4 c 0.02606,-0.62571 0.106577,-1.12951 0.214974,-1.4981 a 1.190744,1.190744 0 0 0 0.0078,-0.0295 l 2.580204,-9.6485 c 0.130121,0.16013 0.267146,0.27901 0.384472,0.51366 a 1.190744,1.190744 0 0 0 0.01395,0.0258 c 0.191371,0.3615 0.34462,0.82066 0.443384,1.38854 0.09456,0.54369 0.11068,1.13794 0.03514,1.79266 a 1.190744,1.190744 0 0 0 -0.0021,0.0176 c -0.05608,0.56071 -0.126621,1.12215 -0.21084,1.68362 -0.08901,0.56455 -0.164941,1.11612 -0.224793,1.65468 -0.05678,0.48206 -0.111957,0.92012 -0.167948,1.31206 a 1.190744,1.190744 0 0 0 -0.0098,0.0786 c -0.03198,0.41576 -0.03837,0.75611 0.0098,1.10898 0.06607,0.69877 0.192142,1.37565 0.38654,2.02365 a 1.190744,1.190744 0 0 0 0.01602,0.0506 c 0.252122,0.72024 0.639047,1.38154 1.142566,1.95699 a 1.190744,1.190744 0 0 0 0.05478,0.0589 c 0.547615,0.54762 1.215559,0.99868 1.982308,1.36529 a 1.190744,1.190744 0 0 0 0.03876,0.0176 c 0.840426,0.36539 1.813075,0.55274 2.922302,0.61701 0.756513,0.0618 1.524372,0.0623 2.304252,0 a 1.190744,1.190744 0 0 0 0.04341,-0.004 c 0.791497,-0.0914 1.529375,-0.21543 2.216402,-0.37156 a 1.190744,1.190744 0 0 0 0.03514,-0.008 c 0.71895,-0.18757 1.375254,-0.41004 1.968872,-0.67386 a 1.190744,1.190744 0 0 0 0.04909,-0.0238 c 0.63294,-0.31647 1.180107,-0.71081 1.601453,-1.21646 a 1.190744,1.190744 0 0 0 0.04496,-0.0589 l 0.111105,-0.15193 c 0.572689,0.40063 1.175633,0.77189 1.857251,1.06401 a 1.190744,1.190744 0 0 0 0.01964,0.008 c 1.588941,0.64853 3.408368,0.97327 5.439461,1.00407 l -0.0057,-0.002 c 1.560969,0.0312 3.096899,-0.15648 4.597653,-0.56276 h 0.0021 c 1.525072,-0.40522 2.929373,-1.00158 4.195092,-1.79265 a 1.190744,1.190744 0 0 0 0.0062,-0.006 c 0.490308,-0.31093 0.889693,-0.71662 1.328084,-1.08211 0.35186,0.54401 0.64743,1.14692 1.111043,1.56838 a 1.190744,1.190744 0 0 0 0.02377,0.0196 c 0.763885,0.65963 1.657485,1.14895 2.644283,1.45521 a 1.190744,1.190744 0 0 0 0.03721,0.01 c 0.946655,0.26115 1.925573,0.39274 2.927469,0.39274 1.455675,0 2.864166,-0.22417 4.206979,-0.6718 a 1.190744,1.190744 0 0 0 0.01602,-0.004 c 1.376785,-0.48026 2.553852,-1.15835 3.482475,-2.05259 a 1.190744,1.190744 0 0 0 0.0155,-0.0155 c 0.503338,-0.50335 0.891711,-1.07993 1.189592,-1.69912 0.104586,0.16587 0.160423,0.36115 0.276985,0.51934 a 1.190744,1.190744 0 0 0 0.0098,0.0119 c 0.948878,1.25389 2.252944,2.22372 3.832324,2.9006 a 1.190744,1.190744 0 0 0 0.01912,0.008 c 1.588935,0.64853 3.406812,0.97327 5.437911,1.00407 l -0.0062,-0.002 c 1.560977,0.0312 3.098899,-0.15595 4.599719,-0.56224 h 0.0021 c 0.959392,-0.25492 1.779651,-0.72163 2.638599,-1.12913 l -1.703255,6.33191 a 1.190744,1.190744 0 0 0 -0.0078,0.0372 c -0.22473,0.96299 -0.320795,1.94649 -0.290938,2.93935 0.0014,1.0607 0.184589,2.06449 0.570508,2.97656 0.39944,0.94415 1.050562,1.74649 1.888257,2.33216 0.916958,0.67059 2.071863,0.96273 3.343982,0.96273 a 1.190744,1.190744 0 0 0 0.04858,-0.002 c 0.860229,-0.0344 1.73251,-0.22387 2.609659,-0.54674 0.90556,-0.3044 1.725757,-0.75246 2.423627,-1.34565 a 1.190744,1.190744 0 0 0 0.31678,-1.39062 l -0.17415,-0.39274 a 1.190744,1.190744 0 0 0 -1.08366,-0.57412 c -0.0279,-0.10134 -0.0614,-0.22532 -0.0801,-0.46871 a 1.190744,1.190744 0 0 0 0,-0.008 c -0.0224,-0.2688 -0.0229,-0.57944 0,-0.92036 0.055,-0.38454 0.10898,-0.76849 0.16381,-1.15238 v -0.004 c 3.8e-4,-0.003 0.002,-0.005 0.002,-0.008 0.0502,-0.32206 0.11087,-0.57859 0.16795,-0.74982 a 1.190744,1.190744 0 0 0 0.0212,-0.0729 c 0.43488,-1.65298 0.86936,-3.30606 1.30432,-4.95887 l 0.002,-0.004 c 0.22144,-0.82669 0.45676,-1.66784 0.68575,-2.50218 0.21631,0.19545 0.3234,0.5191 0.56844,0.67593 a 1.190744,1.190744 0 0 0 0.0465,0.0295 c 0.90935,0.52464 1.9252,0.8243 2.99051,0.89452 1.83672,0.15808 3.57468,-0.15411 5.11132,-0.95343 l 0.002,-0.002 c 1.5011,-0.76691 2.79779,-1.80209 3.85713,-3.08612 a 1.190744,1.190744 0 0 0 0.0103,-0.0119 c 0.37155,-0.46162 0.56185,-1.04892 0.87695,-1.55081 0.25871,0.99817 0.61935,1.94565 1.24592,2.69751 a 1.190744,1.190744 0 0 0 0.0176,0.0233 c 0.72977,0.83405 1.63784,1.47442 2.67374,1.88877 a 1.190744,1.190744 0 0 0 0.0139,0.004 c 1.04469,0.4044 2.1688,0.60358 3.34553,0.60358 1.06569,0 2.14139,-0.1464 3.22048,-0.43202 a 1.190744,1.190744 0 0 0 0.0336,-0.0103 c 1.10063,-0.32372 2.13909,-0.81163 3.10523,-1.45521 0.17494,-0.11325 0.31054,-0.26275 0.47491,-0.38654 0.087,0.11565 0.11574,0.26569 0.21446,0.37311 a 1.190744,1.190744 0 0 0 0.0119,0.0134 c 1.33073,1.40689 3.38389,1.98231 5.91592,1.98231 1.07997,0 2.10183,-0.12617 3.05873,-0.39016 1.00523,-0.27729 1.92407,-0.77644 2.71663,-1.46296 0.18285,-0.15303 0.30046,-0.35157 0.46302,-0.51986 0.68337,0.70289 1.45598,1.31155 2.37712,1.68 a 1.190744,1.190744 0 0 0 0.0114,0.004 c 1.04469,0.40439 2.17078,0.60358 3.34759,0.60358 1.06569,0 2.14191,-0.14588 3.221,-0.4315 a 1.190744,1.190744 0 0 0 0.031,-0.01 c 1.09865,-0.32314 2.13693,-0.81126 3.10162,-1.45315 1.01758,-0.65765 1.92824,-1.5057 2.7249,-2.52542 a 1.190744,1.190744 0 0 0 0.0114,-0.014 c 0.82065,-1.08324 1.45692,-2.36987 1.92598,-3.83955 a 1.190744,1.190744 0 0 0 -0.87488,-1.52549 l -0.78548,-0.1726 a 1.190744,1.190744 0 0 0 -1.37718,0.75757 c -0.34616,0.95858 -0.73369,1.67069 -1.11104,2.13683 a 1.190744,1.190744 0 0 0 -0.004,0.006 c -0.38137,0.47671 -0.75484,0.79002 -1.10743,0.99012 -0.36319,0.17772 -0.69923,0.26148 -1.05471,0.26148 -0.39705,0 -0.77369,-0.0589 -1.14464,-0.16381 -0.3593,-0.12814 -0.58854,-0.32892 -0.81442,-0.76585 -0.19946,-0.4674 -0.23806,-0.89808 -0.0744,-1.47071 a 1.190744,1.190744 0 0 0 0.004,-0.0176 l 2.89853,-10.74198 h 3.26543 a 1.190744,1.190744 0 0 0 1.16014,-0.92397 l 0.39274,-1.69706 a 1.190744,1.190744 0 0 0 -1.16014,-1.45934 h -2.52904 l 1.02112,-3.71657 a 1.190744,1.190744 0 0 0 0.004,-0.01 c 0.26055,-0.97699 0.37159,-1.98893 0.34158,-3.01997 -0.002,-1.05715 -0.18429,-2.05694 -0.56793,-2.96674 -0.39948,-0.97693 -1.06482,-1.80991 -1.92804,-2.42363 -0.91082,-0.66842 -2.05594,-0.96686 -3.30678,-0.96686 -0.86838,0 -1.75246,0.15713 -2.64066,0.4532 -0.88404,0.29468 -1.69181,0.69492 -2.40606,1.2051 a 1.190744,1.190744 0 0 0 -0.37104,1.50171 l 0.17364,0.34778 a 1.190744,1.190744 0 0 0 1.08624,0.51574 1.190744,1.190744 0 0 0 0.002,0.006 c 5.2e-4,0.001 0.0486,0.12751 0.0486,0.38292 a 1.190744,1.190744 0 0 0 0.004,0.092 c 0.0242,0.31447 0.023,0.64579 -0.002,0.99788 -0.027,0.37658 -0.0665,0.7372 -0.11938,1.08003 -0.0506,0.32916 -0.11151,0.58779 -0.16949,0.76171 a 1.190744,1.190744 0 0 0 -0.0217,0.0724 l -1.50792,5.68751 h -1.38648 c 0.81725,-0.9727 1.31414,-2.16307 1.31414,-3.46646 0,-0.72651 -0.15527,-1.43529 -0.45321,-2.08204 -0.25493,-0.63893 -0.62215,-1.21944 -1.09915,-1.70119 -0.48745,-0.52062 -1.08495,-0.92275 -1.75029,-1.18597 -0.66515,-0.29131 -1.38011,-0.44494 -2.10943,-0.44494 -0.73421,0 -1.45629,0.15402 -2.12493,0.44907 -0.63843,0.26581 -1.21917,0.66046 -1.72083,1.1622 -0.48516,0.48516 -0.87545,1.06283 -1.16168,1.70688 a 1.190744,1.190744 0 0 0 -0.0119,0.0315 c -0.26582,0.64554 -0.39481,1.34476 -0.39481,2.06396 0,0.71921 0.12781,1.42484 0.38499,2.08617 a 1.190744,1.190744 0 0 0 0.0217,0.0506 c 0.28623,0.64406 0.67653,1.22379 1.16168,1.70894 a 1.190744,1.190744 0 0 0 0.0315,0.0294 c 0.37075,0.34427 0.80679,0.594 1.2423,0.84181 -0.72685,-0.0387 -1.43511,-0.16759 -2.20142,-0.006 a 1.190744,1.190744 0 0 0 -0.006,0.002 c -0.24325,0.0526 -0.42294,0.23779 -0.65784,0.31057 l 0.0212,-0.0977 a 1.190744,1.190744 0 0 0 -1.16014,-1.45882 h -2.53111 l 1.02371,-3.71709 a 1.190744,1.190744 0 0 0 0.002,-0.01 c 0.26055,-0.97699 0.37212,-1.9884 0.34209,-3.01945 -0.002,-1.0568 -0.18464,-2.05659 -0.56844,-2.96674 -0.39948,-0.97694 -1.06431,-1.81043 -1.92753,-2.42415 -0.911,-0.66856 -2.05591,-0.96634 -3.30677,-0.96634 -0.86848,0 -1.7526,0.15665 -2.64067,0.45268 -0.88405,0.29468 -1.69026,0.69492 -2.4045,1.2051 a 1.190744,1.190744 0 0 0 -0.37311,1.50223 l 0.17415,0.34778 a 1.190744,1.190744 0 0 0 1.08572,0.51522 1.190744,1.190744 0 0 0 0.002,0.006 c 0.001,0.002 0.0491,0.12837 0.0491,0.38292 a 1.190744,1.190744 0 0 0 0.004,0.0915 c 0.0242,0.31447 0.0251,0.6463 0,0.99839 -0.027,0.37659 -0.066,0.73723 -0.11886,1.08004 a 1.190744,1.190744 0 0 0 -0.002,0 c -0.0506,0.32918 -0.11205,0.58779 -0.17002,0.76171 a 1.190744,1.190744 0 0 0 -0.0217,0.0723 l -1.50586,5.68751 h -1.56631 a 1.190744,1.190744 0 0 0 -1.16013,0.92398 l -0.39068,1.69705 a 1.190744,1.190744 0 0 0 0.11317,0.49971 c -0.31181,-0.34989 -0.52424,-0.78401 -0.91209,-1.0604 -0.89329,-0.66556 -1.99173,-1.04749 -3.2184,-1.18132 h -0.002 c -1.97805,-0.2266 -3.82465,0.12183 -5.37125,1.08159 -7.9e-4,4.8e-4 -10e-4,0.001 -0.002,0.002 -0.76446,0.46946 -1.4316,1.06515 -2.00763,1.75597 -0.22144,-0.41204 -0.41339,-0.84756 -0.73845,-1.17564 -0.49101,-0.52357 -1.0935,-0.9352 -1.77147,-1.22267 -0.70739,-0.31259 -1.49692,-0.44906 -2.34559,-0.44906 -0.868505,0 -1.752494,0.15662 -2.640673,0.45268 -0.883829,0.2945 -1.691835,0.69487 -2.406054,1.2051 a 1.190744,1.190744 0 0 0 -0.127125,0.51004 c -0.0417,-0.0382 -0.0528,-0.0954 -0.0956,-0.13281 -0.820759,-0.71816 -1.810682,-1.27989 -2.939355,-1.69912 -1.168282,-0.43393 -2.459078,-0.64078 -3.853512,-0.64078 -1.313617,0 -2.639761,0.15708 -3.970817,0.46663 a 1.190744,1.190744 0 0 0 -0.0062,0 c -1.322889,0.31499 -2.585791,0.80649 -3.781165,1.4671 -1.150741,0.63595 -2.169256,1.47564 -3.0856,2.44894 -0.07134,-0.15592 -0.04995,-0.34615 -0.134875,-0.49609 -0.504856,-0.96778 -1.187068,-1.80802 -2.029334,-2.48409 -0.837805,-0.70103 -1.801118,-1.22362 -2.859257,-1.55701 -1.017616,-0.358 -2.079025,-0.5426 -3.16053,-0.5426 -1.473028,0 -2.889979,0.25801 -4.220414,0.77721 -1.336926,0.52174 -2.470138,1.28384 -3.334164,2.28307 -0.383828,0.43127 -0.670508,0.92679 -0.917773,1.4397 -0.337464,-0.49987 -0.590179,-1.0497 -1.062468,-1.46296 -0.820749,-0.71816 -1.810686,-1.27988 -2.939355,-1.69912 -1.168183,-0.4339 -2.459071,-0.64078 -3.853512,-0.64078 -1.313629,0 -2.637633,0.15706 -3.96875,0.46663 a 1.190744,1.190744 0 0 0 -0.0078,0 c -1.322886,0.31499 -2.586306,0.8065 -3.781682,1.4671 -1.217851,0.67304 -2.311082,1.54187 -3.265433,2.59157 -0.985058,1.08358 -1.734677,2.38022 -2.245858,3.84989 a 1.190744,1.190744 0 0 0 -0.0041,0.008 c -0.678754,2.00542 -0.961585,3.88458 -0.796851,5.63067 0.135059,1.4316 0.604801,2.70636 1.285193,3.84989 a 1.190744,1.190744 0 0 0 -0.195337,0.0393 l -0.288871,0.39842 c -0.403235,0.44667 -0.778704,0.72419 -1.103809,0.86868 -0.114004,0.0507 -0.02931,0.0611 -0.203088,-0.11524 -0.239902,-0.24345 -0.401305,-0.54461 -0.484208,-1.02526 -0.07461,-0.61268 -0.102873,-1.30441 -0.07648,-2.07791 7.5e-5,-0.002 -7.5e-5,-0.004 0,-0.006 0.05733,-0.86078 0.114786,-1.74925 0.172082,-2.66599 0.06256,-1.00093 0.0313,-1.97786 -0.0956,-2.92953 a 1.190744,1.190744 0 0 0 0,-5.2e-4 1.190744,1.190744 0 0 0 0,-5.2e-4 1.190744,1.190744 0 0 0 0,-5.1e-4 1.190744,1.190744 0 0 0 0,-5.2e-4 1.190744,1.190744 0 0 0 0,-5.2e-4 1.190744,1.190744 0 0 0 0,-5.1e-4 1.190744,1.190744 0 0 0 0,-5.2e-4 1.190744,1.190744 0 0 0 0,-5.2e-4 c -0.09971,-0.73127 -0.284035,-1.43715 -0.552938,-2.10943 -0.291107,-0.72776 -0.734815,-1.38593 -1.298629,-1.95285 -0.454846,-0.4802 -1.055355,-0.83931 -1.668115,-1.18597 0.59264,-0.20979 1.335271,-0.31667 1.861385,-0.57413 1.462871,-0.71588 2.6756,-1.56029 3.611149,-2.56212 l 0.0021,-0.002 c 0.941998,-1.0075 1.627491,-2.12386 2.006079,-3.32848 a 1.190744,1.190744 0 0 0 0.0021,-0.01 c 0.362093,-1.18493 0.483957,-2.38747 0.349333,-3.57033 -0.13416,-1.2636 -0.539096,-2.48343 -1.189591,-3.6251 -0.626712,-1.15096 -1.48221,-2.16822 -2.542998,-3.03702 -1.049425,-0.8834 -2.287303,-1.56316 -3.683496,-2.03915 -1.423671,-0.48534 -2.964756,-0.68799 -4.595585,-0.62684 z m -3.134175,4.51239 c 0.214245,-0.003 0.418718,0.006 0.613916,0.0258 0.520517,0.052 0.976194,0.18066 1.379244,0.37673 a 1.190744,1.190744 0 0 0 0.02325,0.0119 c 0.857272,0.39389 1.513147,0.98615 2.042769,1.87689 0.552721,0.92958 0.884049,1.91567 1.011825,2.99775 0.07417,0.83274 0.026,1.67855 -0.153996,2.55282 a 1.190744,1.190744 0 0 0 -0.0062,0.0274 c -0.147299,0.81014 -0.433068,1.54062 -0.872815,2.22467 -0.428094,0.66595 -0.998254,1.24216 -1.74408,1.74047 -0.169206,0.11075 -0.454001,0.12447 -0.644922,0.21652 L 29.1721,146.5878 a 1.190744,1.190744 0 0 0 0.0041,-0.0155 c 0.260529,-0.97687 0.371576,-1.98842 0.341581,-3.01945 -0.0017,-1.0568 -0.184657,-2.0566 -0.568441,-2.96674 -0.399608,-0.97725 -1.064499,-1.81066 -1.927531,-2.42414 -0.910812,-0.66843 -2.055941,-0.96687 -3.306774,-0.96687 -0.19651,0 -0.399436,0.0859 -0.59738,0.1018 1.052228,-0.61909 2.035862,-1.08014 2.847371,-1.2206 0.415976,-0.072 0.800476,-0.10902 1.157553,-0.11368 z m 114.860177,10.33063 -0.34365,1.48983 a 1.190744,1.190744 0 0 0 1.16013,1.45935 h 0.84388 l -2.47117,9.20874 a 1.190744,1.190744 0 0 0 -0.004,0.014 c -0.33371,1.30705 -0.34825,2.49691 -0.20516,3.63285 -0.18429,0.15753 -0.36438,0.33417 -0.55862,0.44339 -0.25003,0.13091 -0.38976,0.14449 -0.63304,0.078 -0.24052,-0.0726 -0.36808,-0.174 -0.49971,-0.34778 -0.0473,-0.0752 -0.0956,-0.15467 0.0114,-0.52917 a 1.190744,1.190744 0 0 0 0.047,-0.3266 c 0,0.0645 -0.001,0.0942 -0.002,0.12816 10e-4,-0.01 0.002,-0.0201 0.004,-0.0284 0.0222,-0.0833 0.0639,-0.22178 0.11938,-0.40204 a 1.190744,1.190744 0 0 0 0.006,-0.0238 c 0.11706,-0.40977 0.24905,-0.87732 0.39481,-1.40199 a 1.190744,1.190744 0 0 0 0.004,-0.016 c 0.14268,-0.54223 0.3007,-1.11423 0.47284,-1.71669 0.17626,-0.61695 0.33889,-1.20519 0.48628,-1.76526 l -0.0176,0.0563 c 0.17045,-0.53974 0.2983,-0.99589 0.39481,-1.4025 l 0.004,-0.01 c 0.11256,-0.36571 0.191,-0.61128 0.20722,-0.65991 a 1.190744,1.190744 0 0 0 0.0119,-0.0372 c 0.34276,-1.15285 0.5188,-2.16137 0.48214,-3.08405 -0.0337,-0.87573 -0.20094,-1.66517 -0.58188,-2.34973 -0.3504,-0.65655 -0.86966,-1.21189 -1.51567,-1.56062 -0.0681,-0.0403 -0.15098,-0.0557 -0.22066,-0.0935 0.87287,-0.0485 1.66886,-0.32857 2.40348,-0.75551 z m -70.491309,2.84531 v 0.001 c 0.07664,-0.003 0.165847,-4.5e-4 0.270784,0.009 a 1.190744,1.190744 0 0 0 0.0036,0.002 c 0.46128,0.0401 0.92219,0.19453 1.423686,0.51367 0.473879,0.30156 0.921654,0.74876 1.33997,1.38854 0.380975,0.58268 0.649569,1.31896 0.775663,2.25206 a 1.190744,1.190744 0 0 0 0.08785,0.13643 c -0.09553,0.22349 -0.207692,0.42264 -0.290938,0.66197 a 1.190744,1.190744 0 0 0 -0.0041,0.008 c -0.308907,0.9127 -0.510446,1.79289 -0.650606,2.65255 -0.366935,-0.58814 -0.718514,-1.15341 -1.134298,-1.81488 -0.641237,-1.02015 -1.210771,-1.91103 -1.709457,-2.67373 a 1.190744,1.190744 0 0 0 -0.02687,-0.0408 c -0.63278,-0.88589 -0.855457,-1.575 -0.859379,-2.03347 0.02614,-0.57918 0.149988,-0.77897 0.308508,-0.9002 a 1.190744,1.190744 0 0 0 0.01137,-0.0103 c 0.105324,-0.0828 0.224327,-0.14306 0.454236,-0.15193 z m 57.543779,0.10387 h 1.85363 a 1.190744,1.190744 0 0 0 -0.0527,0.26975 l 0.17415,0.30437 a 1.190744,1.190744 0 0 0 0.94309,0.38086 c -0.009,0.0672 0.008,0.3702 -0.15038,1.00407 -0.19666,0.7867 -0.45064,1.69662 -0.76532,2.72645 a 1.190744,1.190744 0 0 0 -0.008,0.0217 c -0.28981,1.01433 -0.59321,2.07178 -0.91209,3.17345 -0.32726,1.1305 -0.5832,2.16566 -0.76585,3.10937 a 1.190744,1.190744 0 0 0 -0.004,0.0181 c -0.12365,0.69773 -0.10782,1.28374 -0.10542,1.87844 -0.003,0.002 -0.0109,0.008 -0.0139,0.0103 -0.36629,0.18054 -0.70438,0.26355 -1.06247,0.26355 -0.39639,0 -0.77209,-0.0591 -1.14257,-0.16381 -0.35974,-0.12829 -0.59033,-0.32982 -0.81649,-0.76791 -0.19874,-0.46669 -0.2373,-0.89679 -0.0739,-1.46865 a 1.190744,1.190744 0 0 0 0.006,-0.0176 z m -40.298837,0.65215 c 0.06553,0.28077 0.0818,0.7427 -0.01757,1.36374 -0.100304,0.62691 -0.293059,1.33347 -0.587561,2.11099 -0.280717,0.71259 -0.650043,1.38675 -1.11156,2.02933 -0.443131,0.58885 -0.96487,1.08632 -1.581816,1.50585 -0.165375,0.11245 -0.39002,0.0984 -0.566373,0.17777 0.07964,-0.50337 0.187178,-1.04265 0.341581,-1.63453 0.331594,-1.27113 0.713599,-2.29209 1.117244,-3.04891 0.425835,-0.79846 0.850397,-1.38575 1.228349,-1.76371 0.410894,-0.41089 0.748787,-0.61047 0.928109,-0.67025 a 1.190744,1.190744 0 0 0 0.04082,-0.0155 c 0.08993,-0.0337 0.142283,-0.0394 0.208773,-0.0548 z m -35.355465,0.002 c 0.06529,0.28088 0.08165,0.74153 -0.01757,1.36167 -0.100238,0.62649 -0.29295,1.33316 -0.587561,2.11099 -0.280841,0.7129 -0.650214,1.38698 -1.11156,2.02933 -0.443119,0.58884 -0.964873,1.08632 -1.581816,1.50585 -0.165373,0.11245 -0.390019,0.0984 -0.566373,0.17777 0.07964,-0.50337 0.189251,-1.04264 0.343648,-1.63453 0.331599,-1.27113 0.713602,-2.29209 1.117244,-3.04891 0.425977,-0.79873 0.848561,-1.38599 1.226282,-1.76371 0.410655,-0.41067 0.748585,-0.60988 0.928109,-0.66973 a 1.190744,1.190744 0 0 0 0.04289,-0.016 c 0.08939,-0.0335 0.140468,-0.0374 0.206706,-0.0527 z m -13.597103,0.6103 c 0.0043,0.003 0.0079,0.007 0.01292,0.009 0.0029,0.001 0.0064,0.002 0.0098,0.004 z m 68.980285,0.20929 c 0.004,0.004 0.0129,0.0112 0.0233,0.0124 0.005,7.8e-4 -0.0126,0.002 -0.0145,0.002 0.0154,0.0232 0.0497,0.0799 0.12195,0.23047 a 1.190744,1.190744 0 0 0 0.0155,0.0331 c 0.14574,0.28027 0.28382,1.29163 0.0139,2.85977 -1.8e-4,10e-4 1.9e-4,10e-4 0,0.002 -0.22298,1.13786 -0.51632,2.29259 -0.87902,3.46439 a 1.190744,1.190744 0 0 0 -0.006,0.0238 c -0.32703,1.14462 -0.76308,2.24694 -1.30845,3.31039 a 1.190744,1.190744 0 0 0 -0.006,0.0119 c -0.16251,0.325 -0.35771,0.62398 -0.58963,0.90227 -0.23787,0.28546 -0.48169,0.52321 -0.72863,0.72812 -0.21876,0.15515 -0.43265,0.26806 -0.64854,0.34003 -0.16995,0.0567 -0.21369,0.0405 -0.23823,0.0331 a 1.190744,1.190744 0 0 0 -0.0289,-0.008 c -0.14503,-0.0396 -0.15546,-0.0684 -0.15038,-0.0625 -0.0619,-0.0723 -0.10334,-0.15618 -0.14107,-0.25218 -0.0265,-0.13848 -0.0438,-0.28567 -0.0465,-0.44907 0.0247,-0.25096 0.0573,-0.4906 0.10128,-0.71261 0.28271,-0.99203 0.55336,-1.98432 0.80874,-2.97657 l 0.006,-0.0238 c 0.28981,-1.04387 0.56667,-2.07401 0.82786,-3.08973 a 1.190744,1.190744 0 0 0 0.006,-0.045 c 0.40362,-1.41274 0.91265,-2.48671 1.47433,-3.21479 0.62717,-0.77208 1.13976,-1.05665 1.3224,-1.08986 a 1.190744,1.190744 0 0 0 0.0506,-0.0119 c 0.0266,-0.006 0.0198,-0.004 0.0227,-0.004 -0.009,-0.0141 -0.0123,-0.017 -0.009,-0.0134 z m -47.474621,4.87774 c 0.08805,0.15276 0.120431,0.30656 0.218592,0.45888 a 1.190744,1.190744 0 0 0 0.01188,0.016 c 0.193582,0.29039 0.388035,0.61505 0.581877,0.91571 a 1.190744,1.190744 0 0 0 -1.127063,0.60358 c -0.103069,0.34013 -0.319913,0.63601 -0.464571,0.95911 a 1.190744,1.190744 0 0 0 -0.166398,-0.045 l -0.740007,0.13074 a 1.190744,1.190744 0 0 0 -0.984436,1.17202 c 0,0.48136 0.05852,0.91328 0.103353,1.35547 -0.205136,0.18376 -0.403576,0.3804 -0.628902,0.5333 a 1.190744,1.190744 0 0 0 -0.0155,0.0114 c -0.64447,0.45352 -1.388567,0.77901 -2.259811,0.98082 -0.808035,0.15975 -1.711334,0.12312 -2.753837,-0.15658 a 1.190744,1.190744 0 0 0 -0.01757,-0.004 c -1.411635,-0.35716 -2.18006,-0.98429 -2.728515,-1.77302 1.32131,-0.054 2.701215,-0.0565 3.79305,-0.30851 a 1.190744,1.190744 0 0 0 0.0155,-0.004 c 1.623372,-0.39819 3.010331,-0.9274 4.160469,-1.61748 1.124431,-0.67467 2.031157,-1.46028 2.673739,-2.38848 0.180775,-0.26112 0.187256,-0.56638 0.328145,-0.83974 z m 33.576246,2.1363 v 5.2e-4 l -0.964799,3.58582 c -0.154458,0.13482 -0.316083,0.28524 -0.451652,0.37724 a 1.190744,1.190744 0 0 0 -0.0155,0.0114 c -0.644474,0.45352 -1.388573,0.77901 -2.259811,0.98082 -0.807998,0.15974 -1.713457,0.1231 -2.755904,-0.15658 a 1.190744,1.190744 0 0 0 -0.0155,-0.004 c -1.411637,-0.35716 -2.180063,-0.98481 -2.728515,-1.77354 1.321313,-0.054 2.70121,-0.0565 3.79305,-0.30851 a 1.190744,1.190744 0 0 0 0.0155,-0.004 c 1.62333,-0.39818 3.010205,-0.92732 4.160469,-1.61747 0.514067,-0.30845 0.804075,-0.73338 1.222665,-1.09141 z m -31.103528,1.84433 c 0.396311,0.62455 0.792279,1.25412 1.191141,1.81643 a 1.190744,1.190744 0 0 0 0.0041,0.076 c 0.624579,0.93687 0.814021,1.62706 0.802535,1.90273 -0.01768,0.4243 -0.08195,0.50321 -0.279053,0.64234 a 1.190744,1.190744 0 0 0 -0.0062,0.004 c -0.150927,0.10782 -0.375058,0.19191 -0.822172,0.17157 -0.398754,-0.0181 -0.796495,-0.15009 -1.250053,-0.44907 -0.361623,-0.25534 -0.727644,-0.69999 -1.074353,-1.31258 0.618188,-0.85734 1.081958,-1.81957 1.434021,-2.85151 z m 42.260983,18.16995 c -0.052,0.009 -0.0193,5.7e-4 0.0367,0.0171 a 1.190744,1.190744 0 0 0 -0.0367,-0.0171 z m 0.0419,0.0191 a 1.190744,1.190744 0 0 1 0.0992,0.0538 c -0.0146,-0.012 -0.0354,-0.0268 -0.0625,-0.0398 -0.0126,-0.006 -0.0253,-0.0104 -0.0367,-0.014 z m 0.0997,0.0543 c 0.0244,0.0202 0.0309,0.0322 0.0207,0.0124 a 1.190744,1.190744 0 0 0 -0.0207,-0.0124 z" />
    </g>
    <g
       id="g83"
       transform="matrix(1.1992632,0,0,1.1992632,2.470765,-118.27206)"
       style="mix-blend-mode:normal;fill:#00a5ff;fill-opacity:1;filter:url(#filter89)">
      <path
         id="path82"
         style="color:#000000;-inkscape-font-specification:'Bungasai, Normal';opacity:1;fill:#00a5ff;fill-opacity:1;stroke-width:1.00013;stroke-linecap:round;stroke-linejoin:round;stroke-dasharray:none"
         d="m 30.256788,131.45022 -5.17e-4,5.2e-4 v 5.1e-4 c -1.662906,0.0332 -3.399111,0.39903 -5.206917,1.07229 -1.848118,0.65884 -3.715227,1.70499 -5.615678,3.12281 a 1.190744,1.190744 0 0 0 -0.271301,1.62729 l 0.566374,0.82579 a 1.190744,1.190744 0 0 0 0.218591,0.13901 c -0.439965,0.22247 -0.92022,0.38739 -1.30638,0.68161 a 1.190744,1.190744 0 0 0 -0.312643,1.53686 l 0.17415,0.30489 a 1.190744,1.190744 0 0 0 1.056266,0.4687 c 0.0014,0.004 0.04909,0.12388 0.04909,0.37672 a 1.190744,1.190744 0 0 0 0.0036,0.092 c 0.02418,0.31443 0.02514,0.6479 0,0.99994 -0.027,0.37815 -0.06887,0.75598 -0.12299,1.13481 -0.05028,0.32193 -0.111387,0.58016 -0.167948,0.74983 a 1.190744,1.190744 0 0 0 -0.01964,0.0667 l -4.136699,15.41198 a 1.190744,1.190744 0 0 0 -0.0057,0.0196 c -0.340381,1.36157 -0.485436,2.53906 -0.376721,3.58997 0.103964,1.00497 0.412585,1.91952 0.983919,2.6541 a 1.190744,1.190744 0 0 0 0.0217,0.0253 c 0.560245,0.6803 1.326615,1.17065 2.197282,1.46089 a 1.190744,1.190744 0 0 0 0.04289,0.0139 c 0.810192,0.23628 1.692482,0.36254 2.6448,0.3943 0.585179,0.03 1.170278,0.0308 1.755449,0 a 1.190744,1.190744 0 0 0 0.06253,-0.006 c 0.567406,-0.0597 1.162589,-0.13374 1.785421,-0.22272 a 1.190744,1.190744 0 0 0 0.985986,-0.8909 l 0.17415,-0.69505 a 1.190744,1.190744 0 0 0 -0.275436,-1.09192 c -0.469772,-0.51451 -0.573262,-0.85907 -0.560689,-1.14825 a 1.190744,1.190744 0 0 0 0,-5.2e-4 1.190744,1.190744 0 0 0 0,-5.2e-4 1.190744,1.190744 0 0 0 0,-5.1e-4 1.190744,1.190744 0 0 0 0,-5.2e-4 c 0.02606,-0.62571 0.106577,-1.12951 0.214974,-1.4981 a 1.190744,1.190744 0 0 0 0.0078,-0.0295 l 2.580204,-9.6485 c 0.130121,0.16013 0.267146,0.27901 0.384472,0.51366 a 1.190744,1.190744 0 0 0 0.01395,0.0258 c 0.191371,0.3615 0.34462,0.82066 0.443384,1.38854 0.09456,0.54369 0.11068,1.13794 0.03514,1.79266 a 1.190744,1.190744 0 0 0 -0.0021,0.0176 c -0.05608,0.56071 -0.126621,1.12215 -0.21084,1.68362 -0.08901,0.56455 -0.164941,1.11612 -0.224793,1.65468 -0.05678,0.48206 -0.111957,0.92012 -0.167948,1.31206 a 1.190744,1.190744 0 0 0 -0.0098,0.0786 c -0.03198,0.41576 -0.03837,0.75611 0.0098,1.10898 0.06607,0.69877 0.192142,1.37565 0.38654,2.02365 a 1.190744,1.190744 0 0 0 0.01602,0.0506 c 0.252122,0.72024 0.639047,1.38154 1.142566,1.95699 a 1.190744,1.190744 0 0 0 0.05478,0.0589 c 0.547615,0.54762 1.215559,0.99868 1.982308,1.36529 a 1.190744,1.190744 0 0 0 0.03876,0.0176 c 0.840426,0.36539 1.813075,0.55274 2.922302,0.61701 0.756513,0.0618 1.524372,0.0623 2.304252,0 a 1.190744,1.190744 0 0 0 0.04341,-0.004 c 0.791497,-0.0914 1.529375,-0.21543 2.216402,-0.37156 a 1.190744,1.190744 0 0 0 0.03514,-0.008 c 0.71895,-0.18757 1.375254,-0.41004 1.968872,-0.67386 a 1.190744,1.190744 0 0 0 0.04909,-0.0238 c 0.63294,-0.31647 1.180107,-0.71081 1.601453,-1.21646 a 1.190744,1.190744 0 0 0 0.04496,-0.0589 l 0.111105,-0.15193 c 0.572689,0.40063 1.175633,0.77189 1.857251,1.06401 a 1.190744,1.190744 0 0 0 0.01964,0.008 c 1.588941,0.64853 3.408368,0.97327 5.439461,1.00407 l -0.0057,-0.002 c 1.560969,0.0312 3.096899,-0.15648 4.597653,-0.56276 h 0.0021 c 1.525072,-0.40522 2.929373,-1.00158 4.195092,-1.79265 a 1.190744,1.190744 0 0 0 0.0062,-0.006 c 0.490308,-0.31093 0.889693,-0.71662 1.328084,-1.08211 0.35186,0.54401 0.64743,1.14692 1.111043,1.56838 a 1.190744,1.190744 0 0 0 0.02377,0.0196 c 0.763885,0.65963 1.657485,1.14895 2.644283,1.45521 a 1.190744,1.190744 0 0 0 0.03721,0.01 c 0.946655,0.26115 1.925573,0.39274 2.927469,0.39274 1.455675,0 2.864166,-0.22417 4.206979,-0.6718 a 1.190744,1.190744 0 0 0 0.01602,-0.004 c 1.376785,-0.48026 2.553852,-1.15835 3.482475,-2.05259 a 1.190744,1.190744 0 0 0 0.0155,-0.0155 c 0.503338,-0.50335 0.891711,-1.07993 1.189592,-1.69912 0.104586,0.16587 0.160423,0.36115 0.276985,0.51934 a 1.190744,1.190744 0 0 0 0.0098,0.0119 c 0.948878,1.25389 2.252944,2.22372 3.832324,2.9006 a 1.190744,1.190744 0 0 0 0.01912,0.008 c 1.588935,0.64853 3.406812,0.97327 5.437911,1.00407 l -0.0062,-0.002 c 1.560977,0.0312 3.098899,-0.15595 4.599719,-0.56224 h 0.0021 c 0.959392,-0.25492 1.779651,-0.72163 2.638599,-1.12913 l -1.703255,6.33191 a 1.190744,1.190744 0 0 0 -0.0078,0.0372 c -0.22473,0.96299 -0.320795,1.94649 -0.290938,2.93935 0.0014,1.0607 0.184589,2.06449 0.570508,2.97656 0.39944,0.94415 1.050562,1.74649 1.888257,2.33216 0.916958,0.67059 2.071863,0.96273 3.343982,0.96273 a 1.190744,1.190744 0 0 0 0.04858,-0.002 c 0.860229,-0.0344 1.73251,-0.22387 2.609659,-0.54674 0.90556,-0.3044 1.725757,-0.75246 2.423627,-1.34565 a 1.190744,1.190744 0 0 0 0.31678,-1.39062 l -0.17415,-0.39274 a 1.190744,1.190744 0 0 0 -1.08366,-0.57412 c -0.0279,-0.10134 -0.0614,-0.22532 -0.0801,-0.46871 a 1.190744,1.190744 0 0 0 0,-0.008 c -0.0224,-0.2688 -0.0229,-0.57944 0,-0.92036 0.055,-0.38454 0.10898,-0.76849 0.16381,-1.15238 v -0.004 c 3.8e-4,-0.003 0.002,-0.005 0.002,-0.008 0.0502,-0.32206 0.11087,-0.57859 0.16795,-0.74982 a 1.190744,1.190744 0 0 0 0.0212,-0.0729 c 0.43488,-1.65298 0.86936,-3.30606 1.30432,-4.95887 l 0.002,-0.004 c 0.22144,-0.82669 0.45676,-1.66784 0.68575,-2.50218 0.21631,0.19545 0.3234,0.5191 0.56844,0.67593 a 1.190744,1.190744 0 0 0 0.0465,0.0295 c 0.90935,0.52464 1.9252,0.8243 2.99051,0.89452 1.83672,0.15808 3.57468,-0.15411 5.11132,-0.95343 l 0.002,-0.002 c 1.5011,-0.76691 2.79779,-1.80209 3.85713,-3.08612 a 1.190744,1.190744 0 0 0 0.0103,-0.0119 c 0.37155,-0.46162 0.56185,-1.04892 0.87695,-1.55081 0.25871,0.99817 0.61935,1.94565 1.24592,2.69751 a 1.190744,1.190744 0 0 0 0.0176,0.0233 c 0.72977,0.83405 1.63784,1.47442 2.67374,1.88877 a 1.190744,1.190744 0 0 0 0.0139,0.004 c 1.04469,0.4044 2.1688,0.60358 3.34553,0.60358 1.06569,0 2.14139,-0.1464 3.22048,-0.43202 a 1.190744,1.190744 0 0 0 0.0336,-0.0103 c 1.10063,-0.32372 2.13909,-0.81163 3.10523,-1.45521 0.17494,-0.11325 0.31054,-0.26275 0.47491,-0.38654 0.087,0.11565 0.11574,0.26569 0.21446,0.37311 a 1.190744,1.190744 0 0 0 0.0119,0.0134 c 1.33073,1.40689 3.38389,1.98231 5.91592,1.98231 1.07997,0 2.10183,-0.12617 3.05873,-0.39016 1.00523,-0.27729 1.92407,-0.77644 2.71663,-1.46296 0.18285,-0.15303 0.30046,-0.35157 0.46302,-0.51986 0.68337,0.70289 1.45598,1.31155 2.37712,1.68 a 1.190744,1.190744 0 0 0 0.0114,0.004 c 1.04469,0.40439 2.17078,0.60358 3.34759,0.60358 1.06569,0 2.14191,-0.14588 3.221,-0.4315 a 1.190744,1.190744 0 0 0 0.031,-0.01 c 1.09865,-0.32314 2.13693,-0.81126 3.10162,-1.45315 1.01758,-0.65765 1.92824,-1.5057 2.7249,-2.52542 a 1.190744,1.190744 0 0 0 0.0114,-0.014 c 0.82065,-1.08324 1.45692,-2.36987 1.92598,-3.83955 a 1.190744,1.190744 0 0 0 -0.87488,-1.52549 l -0.78548,-0.1726 a 1.190744,1.190744 0 0 0 -1.37718,0.75757 c -0.34616,0.95858 -0.73369,1.67069 -1.11104,2.13683 a 1.190744,1.190744 0 0 0 -0.004,0.006 c -0.38137,0.47671 -0.75484,0.79002 -1.10743,0.99012 -0.36319,0.17772 -0.69923,0.26148 -1.05471,0.26148 -0.39705,0 -0.77369,-0.0589 -1.14464,-0.16381 -0.3593,-0.12814 -0.58854,-0.32892 -0.81442,-0.76585 -0.19946,-0.4674 -0.23806,-0.89808 -0.0744,-1.47071 a 1.190744,1.190744 0 0 0 0.004,-0.0176 l 2.89853,-10.74198 h 3.26543 a 1.190744,1.190744 0 0 0 1.16014,-0.92397 l 0.39274,-1.69706 a 1.190744,1.190744 0 0 0 -1.16014,-1.45934 h -2.52904 l 1.02112,-3.71657 a 1.190744,1.190744 0 0 0 0.004,-0.01 c 0.26055,-0.97699 0.37159,-1.98893 0.34158,-3.01997 -0.002,-1.05715 -0.18429,-2.05694 -0.56793,-2.96674 -0.39948,-0.97693 -1.06482,-1.80991 -1.92804,-2.42363 -0.91082,-0.66842 -2.05594,-0.96686 -3.30678,-0.96686 -0.86838,0 -1.75246,0.15713 -2.64066,0.4532 -0.88404,0.29468 -1.69181,0.69492 -2.40606,1.2051 a 1.190744,1.190744 0 0 0 -0.37104,1.50171 l 0.17364,0.34778 a 1.190744,1.190744 0 0 0 1.08624,0.51574 1.190744,1.190744 0 0 0 0.002,0.006 c 5.2e-4,0.001 0.0486,0.12751 0.0486,0.38292 a 1.190744,1.190744 0 0 0 0.004,0.092 c 0.0242,0.31447 0.023,0.64579 -0.002,0.99788 -0.027,0.37658 -0.0665,0.7372 -0.11938,1.08003 -0.0506,0.32916 -0.11151,0.58779 -0.16949,0.76171 a 1.190744,1.190744 0 0 0 -0.0217,0.0724 l -1.50792,5.68751 h -1.38648 c 0.81725,-0.9727 1.31414,-2.16307 1.31414,-3.46646 0,-0.72651 -0.15527,-1.43529 -0.45321,-2.08204 -0.25493,-0.63893 -0.62215,-1.21944 -1.09915,-1.70119 -0.48745,-0.52062 -1.08495,-0.92275 -1.75029,-1.18597 -0.66515,-0.29131 -1.38011,-0.44494 -2.10943,-0.44494 -0.73421,0 -1.45629,0.15402 -2.12493,0.44907 -0.63843,0.26581 -1.21917,0.66046 -1.72083,1.1622 -0.48516,0.48516 -0.87545,1.06283 -1.16168,1.70688 a 1.190744,1.190744 0 0 0 -0.0119,0.0315 c -0.26582,0.64554 -0.39481,1.34476 -0.39481,2.06396 0,0.71921 0.12781,1.42484 0.38499,2.08617 a 1.190744,1.190744 0 0 0 0.0217,0.0506 c 0.28623,0.64406 0.67653,1.22379 1.16168,1.70894 a 1.190744,1.190744 0 0 0 0.0315,0.0294 c 0.37075,0.34427 0.80679,0.594 1.2423,0.84181 -0.72685,-0.0387 -1.43511,-0.16759 -2.20142,-0.006 a 1.190744,1.190744 0 0 0 -0.006,0.002 c -0.24325,0.0526 -0.42294,0.23779 -0.65784,0.31057 l 0.0212,-0.0977 a 1.190744,1.190744 0 0 0 -1.16014,-1.45882 h -2.53111 l 1.02371,-3.71709 a 1.190744,1.190744 0 0 0 0.002,-0.01 c 0.26055,-0.97699 0.37212,-1.9884 0.34209,-3.01945 -0.002,-1.0568 -0.18464,-2.05659 -0.56844,-2.96674 -0.39948,-0.97694 -1.06431,-1.81043 -1.92753,-2.42415 -0.911,-0.66856 -2.05591,-0.96634 -3.30677,-0.96634 -0.86848,0 -1.7526,0.15665 -2.64067,0.45268 -0.88405,0.29468 -1.69026,0.69492 -2.4045,1.2051 a 1.190744,1.190744 0 0 0 -0.37311,1.50223 l 0.17415,0.34778 a 1.190744,1.190744 0 0 0 1.08572,0.51522 1.190744,1.190744 0 0 0 0.002,0.006 c 0.001,0.002 0.0491,0.12837 0.0491,0.38292 a 1.190744,1.190744 0 0 0 0.004,0.0915 c 0.0242,0.31447 0.0251,0.6463 0,0.99839 -0.027,0.37659 -0.066,0.73723 -0.11886,1.08004 a 1.190744,1.190744 0 0 0 -0.002,0 c -0.0506,0.32918 -0.11205,0.58779 -0.17002,0.76171 a 1.190744,1.190744 0 0 0 -0.0217,0.0723 l -1.50586,5.68751 h -1.56631 a 1.190744,1.190744 0 0 0 -1.16013,0.92398 l -0.39068,1.69705 a 1.190744,1.190744 0 0 0 0.11317,0.49971 c -0.31181,-0.34989 -0.52424,-0.78401 -0.91209,-1.0604 -0.89329,-0.66556 -1.99173,-1.04749 -3.2184,-1.18132 h -0.002 c -1.97805,-0.2266 -3.82465,0.12183 -5.37125,1.08159 -7.9e-4,4.8e-4 -10e-4,0.001 -0.002,0.002 -0.76446,0.46946 -1.4316,1.06515 -2.00763,1.75597 -0.22144,-0.41204 -0.41339,-0.84756 -0.73845,-1.17564 -0.49101,-0.52357 -1.0935,-0.9352 -1.77147,-1.22267 -0.70739,-0.31259 -1.49692,-0.44906 -2.34559,-0.44906 -0.868505,0 -1.752494,0.15662 -2.640673,0.45268 -0.883829,0.2945 -1.691835,0.69487 -2.406054,1.2051 a 1.190744,1.190744 0 0 0 -0.127125,0.51004 c -0.0417,-0.0382 -0.0528,-0.0954 -0.0956,-0.13281 -0.820759,-0.71816 -1.810682,-1.27989 -2.939355,-1.69912 -1.168282,-0.43393 -2.459078,-0.64078 -3.853512,-0.64078 -1.313617,0 -2.639761,0.15708 -3.970817,0.46663 a 1.190744,1.190744 0 0 0 -0.0062,0 c -1.322889,0.31499 -2.585791,0.80649 -3.781165,1.4671 -1.150741,0.63595 -2.169256,1.47564 -3.0856,2.44894 -0.07134,-0.15592 -0.04995,-0.34615 -0.134875,-0.49609 -0.504856,-0.96778 -1.187068,-1.80802 -2.029334,-2.48409 -0.837805,-0.70103 -1.801118,-1.22362 -2.859257,-1.55701 -1.017616,-0.358 -2.079025,-0.5426 -3.16053,-0.5426 -1.473028,0 -2.889979,0.25801 -4.220414,0.77721 -1.336926,0.52174 -2.470138,1.28384 -3.334164,2.28307 -0.383828,0.43127 -0.670508,0.92679 -0.917773,1.4397 -0.337464,-0.49987 -0.590179,-1.0497 -1.062468,-1.46296 -0.820749,-0.71816 -1.810686,-1.27988 -2.939355,-1.69912 -1.168183,-0.4339 -2.459071,-0.64078 -3.853512,-0.64078 -1.313629,0 -2.637633,0.15706 -3.96875,0.46663 a 1.190744,1.190744 0 0 0 -0.0078,0 c -1.322886,0.31499 -2.586306,0.8065 -3.781682,1.4671 -1.217851,0.67304 -2.311082,1.54187 -3.265433,2.59157 -0.985058,1.08358 -1.734677,2.38022 -2.245858,3.84989 a 1.190744,1.190744 0 0 0 -0.0041,0.008 c -0.678754,2.00542 -0.961585,3.88458 -0.796851,5.63067 0.135059,1.4316 0.604801,2.70636 1.285193,3.84989 a 1.190744,1.190744 0 0 0 -0.195337,0.0393 l -0.288871,0.39842 c -0.403235,0.44667 -0.778704,0.72419 -1.103809,0.86868 -0.114004,0.0507 -0.02931,0.0611 -0.203088,-0.11524 -0.239902,-0.24345 -0.401305,-0.54461 -0.484208,-1.02526 -0.07461,-0.61268 -0.102873,-1.30441 -0.07648,-2.07791 7.5e-5,-0.002 -7.5e-5,-0.004 0,-0.006 0.05733,-0.86078 0.114786,-1.74925 0.172082,-2.66599 0.06256,-1.00093 0.0313,-1.97786 -0.0956,-2.92953 a 1.190744,1.190744 0 0 0 0,-5.2e-4 1.190744,1.190744 0 0 0 0,-5.2e-4 1.190744,1.190744 0 0 0 0,-5.1e-4 1.190744,1.190744 0 0 0 0,-5.2e-4 1.190744,1.190744 0 0 0 0,-5.2e-4 1.190744,1.190744 0 0 0 0,-5.1e-4 1.190744,1.190744 0 0 0 0,-5.2e-4 1.190744,1.190744 0 0 0 0,-5.2e-4 c -0.09971,-0.73127 -0.284035,-1.43715 -0.552938,-2.10943 -0.291107,-0.72776 -0.734815,-1.38593 -1.298629,-1.95285 -0.454846,-0.4802 -1.055355,-0.83931 -1.668115,-1.18597 0.59264,-0.20979 1.335271,-0.31667 1.861385,-0.57413 1.462871,-0.71588 2.6756,-1.56029 3.611149,-2.56212 l 0.0021,-0.002 c 0.941998,-1.0075 1.627491,-2.12386 2.006079,-3.32848 a 1.190744,1.190744 0 0 0 0.0021,-0.01 c 0.362093,-1.18493 0.483957,-2.38747 0.349333,-3.57033 -0.13416,-1.2636 -0.539096,-2.48343 -1.189591,-3.6251 -0.626712,-1.15096 -1.48221,-2.16822 -2.542998,-3.03702 -1.049425,-0.8834 -2.287303,-1.56316 -3.683496,-2.03915 -1.423671,-0.48534 -2.964756,-0.68799 -4.595585,-0.62684 z m -3.134175,4.51239 c 0.214245,-0.003 0.418718,0.006 0.613916,0.0258 0.520517,0.052 0.976194,0.18066 1.379244,0.37673 a 1.190744,1.190744 0 0 0 0.02325,0.0119 c 0.857272,0.39389 1.513147,0.98615 2.042769,1.87689 0.552721,0.92958 0.884049,1.91567 1.011825,2.99775 0.07417,0.83274 0.026,1.67855 -0.153996,2.55282 a 1.190744,1.190744 0 0 0 -0.0062,0.0274 c -0.147299,0.81014 -0.433068,1.54062 -0.872815,2.22467 -0.428094,0.66595 -0.998254,1.24216 -1.74408,1.74047 -0.169206,0.11075 -0.454001,0.12447 -0.644922,0.21652 L 29.1721,146.5878 a 1.190744,1.190744 0 0 0 0.0041,-0.0155 c 0.260529,-0.97687 0.371576,-1.98842 0.341581,-3.01945 -0.0017,-1.0568 -0.184657,-2.0566 -0.568441,-2.96674 -0.399608,-0.97725 -1.064499,-1.81066 -1.927531,-2.42414 -0.910812,-0.66843 -2.055941,-0.96687 -3.306774,-0.96687 -0.19651,0 -0.399436,0.0859 -0.59738,0.1018 1.052228,-0.61909 2.035862,-1.08014 2.847371,-1.2206 0.415976,-0.072 0.800476,-0.10902 1.157553,-0.11368 z m 114.860177,10.33063 -0.34365,1.48983 a 1.190744,1.190744 0 0 0 1.16013,1.45935 h 0.84388 l -2.47117,9.20874 a 1.190744,1.190744 0 0 0 -0.004,0.014 c -0.33371,1.30705 -0.34825,2.49691 -0.20516,3.63285 -0.18429,0.15753 -0.36438,0.33417 -0.55862,0.44339 -0.25003,0.13091 -0.38976,0.14449 -0.63304,0.078 -0.24052,-0.0726 -0.36808,-0.174 -0.49971,-0.34778 -0.0473,-0.0752 -0.0956,-0.15467 0.0114,-0.52917 a 1.190744,1.190744 0 0 0 0.047,-0.3266 c 0,0.0645 -0.001,0.0942 -0.002,0.12816 10e-4,-0.01 0.002,-0.0201 0.004,-0.0284 0.0222,-0.0833 0.0639,-0.22178 0.11938,-0.40204 a 1.190744,1.190744 0 0 0 0.006,-0.0238 c 0.11706,-0.40977 0.24905,-0.87732 0.39481,-1.40199 a 1.190744,1.190744 0 0 0 0.004,-0.016 c 0.14268,-0.54223 0.3007,-1.11423 0.47284,-1.71669 0.17626,-0.61695 0.33889,-1.20519 0.48628,-1.76526 l -0.0176,0.0563 c 0.17045,-0.53974 0.2983,-0.99589 0.39481,-1.4025 l 0.004,-0.01 c 0.11256,-0.36571 0.191,-0.61128 0.20722,-0.65991 a 1.190744,1.190744 0 0 0 0.0119,-0.0372 c 0.34276,-1.15285 0.5188,-2.16137 0.48214,-3.08405 -0.0337,-0.87573 -0.20094,-1.66517 -0.58188,-2.34973 -0.3504,-0.65655 -0.86966,-1.21189 -1.51567,-1.56062 -0.0681,-0.0403 -0.15098,-0.0557 -0.22066,-0.0935 0.87287,-0.0485 1.66886,-0.32857 2.40348,-0.75551 z m -70.491309,2.84531 v 0.001 c 0.07664,-0.003 0.165847,-4.5e-4 0.270784,0.009 a 1.190744,1.190744 0 0 0 0.0036,0.002 c 0.46128,0.0401 0.92219,0.19453 1.423686,0.51367 0.473879,0.30156 0.921654,0.74876 1.33997,1.38854 0.380975,0.58268 0.649569,1.31896 0.775663,2.25206 a 1.190744,1.190744 0 0 0 0.08785,0.13643 c -0.09553,0.22349 -0.207692,0.42264 -0.290938,0.66197 a 1.190744,1.190744 0 0 0 -0.0041,0.008 c -0.308907,0.9127 -0.510446,1.79289 -0.650606,2.65255 -0.366935,-0.58814 -0.718514,-1.15341 -1.134298,-1.81488 -0.641237,-1.02015 -1.210771,-1.91103 -1.709457,-2.67373 a 1.190744,1.190744 0 0 0 -0.02687,-0.0408 c -0.63278,-0.88589 -0.855457,-1.575 -0.859379,-2.03347 0.02614,-0.57918 0.149988,-0.77897 0.308508,-0.9002 a 1.190744,1.190744 0 0 0 0.01137,-0.0103 c 0.105324,-0.0828 0.224327,-0.14306 0.454236,-0.15193 z m 57.543779,0.10387 h 1.85363 a 1.190744,1.190744 0 0 0 -0.0527,0.26975 l 0.17415,0.30437 a 1.190744,1.190744 0 0 0 0.94309,0.38086 c -0.009,0.0672 0.008,0.3702 -0.15038,1.00407 -0.19666,0.7867 -0.45064,1.69662 -0.76532,2.72645 a 1.190744,1.190744 0 0 0 -0.008,0.0217 c -0.28981,1.01433 -0.59321,2.07178 -0.91209,3.17345 -0.32726,1.1305 -0.5832,2.16566 -0.76585,3.10937 a 1.190744,1.190744 0 0 0 -0.004,0.0181 c -0.12365,0.69773 -0.10782,1.28374 -0.10542,1.87844 -0.003,0.002 -0.0109,0.008 -0.0139,0.0103 -0.36629,0.18054 -0.70438,0.26355 -1.06247,0.26355 -0.39639,0 -0.77209,-0.0591 -1.14257,-0.16381 -0.35974,-0.12829 -0.59033,-0.32982 -0.81649,-0.76791 -0.19874,-0.46669 -0.2373,-0.89679 -0.0739,-1.46865 a 1.190744,1.190744 0 0 0 0.006,-0.0176 z m -40.298837,0.65215 c 0.06553,0.28077 0.0818,0.7427 -0.01757,1.36374 -0.100304,0.62691 -0.293059,1.33347 -0.587561,2.11099 -0.280717,0.71259 -0.650043,1.38675 -1.11156,2.02933 -0.443131,0.58885 -0.96487,1.08632 -1.581816,1.50585 -0.165375,0.11245 -0.39002,0.0984 -0.566373,0.17777 0.07964,-0.50337 0.187178,-1.04265 0.341581,-1.63453 0.331594,-1.27113 0.713599,-2.29209 1.117244,-3.04891 0.425835,-0.79846 0.850397,-1.38575 1.228349,-1.76371 0.410894,-0.41089 0.748787,-0.61047 0.928109,-0.67025 a 1.190744,1.190744 0 0 0 0.04082,-0.0155 c 0.08993,-0.0337 0.142283,-0.0394 0.208773,-0.0548 z m -35.355465,0.002 c 0.06529,0.28088 0.08165,0.74153 -0.01757,1.36167 -0.100238,0.62649 -0.29295,1.33316 -0.587561,2.11099 -0.280841,0.7129 -0.650214,1.38698 -1.11156,2.02933 -0.443119,0.58884 -0.964873,1.08632 -1.581816,1.50585 -0.165373,0.11245 -0.390019,0.0984 -0.566373,0.17777 0.07964,-0.50337 0.189251,-1.04264 0.343648,-1.63453 0.331599,-1.27113 0.713602,-2.29209 1.117244,-3.04891 0.425977,-0.79873 0.848561,-1.38599 1.226282,-1.76371 0.410655,-0.41067 0.748585,-0.60988 0.928109,-0.66973 a 1.190744,1.190744 0 0 0 0.04289,-0.016 c 0.08939,-0.0335 0.140468,-0.0374 0.206706,-0.0527 z m -13.597103,0.6103 c 0.0043,0.003 0.0079,0.007 0.01292,0.009 0.0029,0.001 0.0064,0.002 0.0098,0.004 z m 68.980285,0.20929 c 0.004,0.004 0.0129,0.0112 0.0233,0.0124 0.005,7.8e-4 -0.0126,0.002 -0.0145,0.002 0.0154,0.0232 0.0497,0.0799 0.12195,0.23047 a 1.190744,1.190744 0 0 0 0.0155,0.0331 c 0.14574,0.28027 0.28382,1.29163 0.0139,2.85977 -1.8e-4,10e-4 1.9e-4,10e-4 0,0.002 -0.22298,1.13786 -0.51632,2.29259 -0.87902,3.46439 a 1.190744,1.190744 0 0 0 -0.006,0.0238 c -0.32703,1.14462 -0.76308,2.24694 -1.30845,3.31039 a 1.190744,1.190744 0 0 0 -0.006,0.0119 c -0.16251,0.325 -0.35771,0.62398 -0.58963,0.90227 -0.23787,0.28546 -0.48169,0.52321 -0.72863,0.72812 -0.21876,0.15515 -0.43265,0.26806 -0.64854,0.34003 -0.16995,0.0567 -0.21369,0.0405 -0.23823,0.0331 a 1.190744,1.190744 0 0 0 -0.0289,-0.008 c -0.14503,-0.0396 -0.15546,-0.0684 -0.15038,-0.0625 -0.0619,-0.0723 -0.10334,-0.15618 -0.14107,-0.25218 -0.0265,-0.13848 -0.0438,-0.28567 -0.0465,-0.44907 0.0247,-0.25096 0.0573,-0.4906 0.10128,-0.71261 0.28271,-0.99203 0.55336,-1.98432 0.80874,-2.97657 l 0.006,-0.0238 c 0.28981,-1.04387 0.56667,-2.07401 0.82786,-3.08973 a 1.190744,1.190744 0 0 0 0.006,-0.045 c 0.40362,-1.41274 0.91265,-2.48671 1.47433,-3.21479 0.62717,-0.77208 1.13976,-1.05665 1.3224,-1.08986 a 1.190744,1.190744 0 0 0 0.0506,-0.0119 c 0.0266,-0.006 0.0198,-0.004 0.0227,-0.004 -0.009,-0.0141 -0.0123,-0.017 -0.009,-0.0134 z m -47.474621,4.87774 c 0.08805,0.15276 0.120431,0.30656 0.218592,0.45888 a 1.190744,1.190744 0 0 0 0.01188,0.016 c 0.193582,0.29039 0.388035,0.61505 0.581877,0.91571 a 1.190744,1.190744 0 0 0 -1.127063,0.60358 c -0.103069,0.34013 -0.319913,0.63601 -0.464571,0.95911 a 1.190744,1.190744 0 0 0 -0.166398,-0.045 l -0.740007,0.13074 a 1.190744,1.190744 0 0 0 -0.984436,1.17202 c 0,0.48136 0.05852,0.91328 0.103353,1.35547 -0.205136,0.18376 -0.403576,0.3804 -0.628902,0.5333 a 1.190744,1.190744 0 0 0 -0.0155,0.0114 c -0.64447,0.45352 -1.388567,0.77901 -2.259811,0.98082 -0.808035,0.15975 -1.711334,0.12312 -2.753837,-0.15658 a 1.190744,1.190744 0 0 0 -0.01757,-0.004 c -1.411635,-0.35716 -2.18006,-0.98429 -2.728515,-1.77302 1.32131,-0.054 2.701215,-0.0565 3.79305,-0.30851 a 1.190744,1.190744 0 0 0 0.0155,-0.004 c 1.623372,-0.39819 3.010331,-0.9274 4.160469,-1.61748 1.124431,-0.67467 2.031157,-1.46028 2.673739,-2.38848 0.180775,-0.26112 0.187256,-0.56638 0.328145,-0.83974 z m 33.576246,2.1363 v 5.2e-4 l -0.964799,3.58582 c -0.154458,0.13482 -0.316083,0.28524 -0.451652,0.37724 a 1.190744,1.190744 0 0 0 -0.0155,0.0114 c -0.644474,0.45352 -1.388573,0.77901 -2.259811,0.98082 -0.807998,0.15974 -1.713457,0.1231 -2.755904,-0.15658 a 1.190744,1.190744 0 0 0 -0.0155,-0.004 c -1.411637,-0.35716 -2.180063,-0.98481 -2.728515,-1.77354 1.321313,-0.054 2.70121,-0.0565 3.79305,-0.30851 a 1.190744,1.190744 0 0 0 0.0155,-0.004 c 1.62333,-0.39818 3.010205,-0.92732 4.160469,-1.61747 0.514067,-0.30845 0.804075,-0.73338 1.222665,-1.09141 z m -31.103528,1.84433 c 0.396311,0.62455 0.792279,1.25412 1.191141,1.81643 a 1.190744,1.190744 0 0 0 0.0041,0.076 c 0.624579,0.93687 0.814021,1.62706 0.802535,1.90273 -0.01768,0.4243 -0.08195,0.50321 -0.279053,0.64234 a 1.190744,1.190744 0 0 0 -0.0062,0.004 c -0.150927,0.10782 -0.375058,0.19191 -0.822172,0.17157 -0.398754,-0.0181 -0.796495,-0.15009 -1.250053,-0.44907 -0.361623,-0.25534 -0.727644,-0.69999 -1.074353,-1.31258 0.618188,-0.85734 1.081958,-1.81957 1.434021,-2.85151 z m 42.260983,18.16995 c -0.052,0.009 -0.0193,5.7e-4 0.0367,0.0171 a 1.190744,1.190744 0 0 0 -0.0367,-0.0171 z m 0.0419,0.0191 a 1.190744,1.190744 0 0 1 0.0992,0.0538 c -0.0146,-0.012 -0.0354,-0.0268 -0.0625,-0.0398 -0.0126,-0.006 -0.0253,-0.0104 -0.0367,-0.014 z m 0.0997,0.0543 c 0.0244,0.0202 0.0309,0.0322 0.0207,0.0124 a 1.190744,1.190744 0 0 0 -0.0207,-0.0124 z" />
    </g>
    <path
       id="path52"
       style="font-size:55.4604px;font-family:Bungasai;-inkscape-font-specification:'Bungasai, Normal';letter-spacing:-2.38125px;opacity:1;fill:#ffef39;fill-opacity:1;stroke:none;stroke-width:1.24536;stroke-linecap:round;stroke-linejoin:round"
       d="m 56.513182,63.491985 c -1.053603,0.0076 -2.111511,0.0283 -3.17305,0.05887 -0.777459,1.004325 -1.401664,2.150898 -1.855493,3.45565 -0.765721,2.262367 -1.06211,4.316102 -0.888081,6.1608 0.17403,1.8447 0.748309,3.427679 1.722867,4.75028 0.974556,1.287819 2.314752,2.297739 4.020231,3.028652 1.705477,0.696093 3.706835,1.060864 6.004006,1.095694 1.740281,0.03482 3.445255,-0.173455 5.115925,-0.625934 1.705476,-0.452476 3.254558,-1.114271 4.646783,-1.984396 0.988777,-0.627033 1.879734,-1.360731 2.684698,-2.188289 0.03048,0.08369 0.05327,0.17567 0.08614,0.256572 0.487281,1.078975 1.113935,1.966894 1.879661,2.663007 0.765724,0.661309 1.653024,1.148708 2.662388,1.461957 1.009363,0.278448 2.053173,0.417083 3.132148,0.417083 1.601061,0 3.132889,-0.243379 4.594727,-0.73067 1.496643,-0.52208 2.714833,-1.235622 3.654585,-2.140569 0.939751,-0.939756 1.496781,-2.035945 1.67081,-3.288941 0.174027,-1.287818 -0.226489,-2.697633 -1.20105,-4.229082 -0.6265,-1.009362 -1.322788,-2.1228 -2.088511,-3.340998 -0.39176,-0.623253 -0.695642,-1.087985 -1.041777,-1.629289 -3.966371,-0.725809 -7.958379,-1.390821 -12.006775,-1.908788 0.109075,1.040659 0.542423,2.149849 1.302068,3.328605 0.696111,1.044172 1.3924,2.140975 2.08851,3.289561 0.696114,1.148588 1.391781,2.210268 2.087893,3.184826 h -0.05206 c 0.835335,1.253006 1.235855,2.297438 1.201048,3.132768 -0.0348,0.835341 -0.348444,1.461376 -0.940139,1.87904 -0.487279,0.348081 -1.113939,0.504592 -1.87966,0.469762 -0.765727,-0.03482 -1.514385,-0.29607 -2.245306,-0.783348 -0.696112,-0.48728 -1.304898,-1.217449 -1.826983,-2.192007 -0.114206,-0.220799 -0.210108,-0.460912 -0.299333,-0.708359 0.07989,-0.09618 0.166412,-0.185335 0.244177,-0.283839 1.044169,-1.322621 1.77496,-2.871701 2.192626,-4.646784 L 76.962,71.130852 c -0.348058,1.148587 -0.870581,2.227512 -1.566694,3.236883 -0.06523,0.09611 -0.150494,0.172175 -0.218765,0.265247 -0.05398,-0.446048 -0.0911,-0.910004 -0.0911,-1.413619 l -0.886843,0.156173 c 0,0.811128 0.05608,1.557576 0.16733,2.240348 -0.432291,0.444336 -0.901913,0.851001 -1.424156,1.205387 -0.939753,0.661301 -2.018685,1.131453 -3.236883,1.409901 -1.218199,0.243634 -2.540521,0.174013 -3.967553,-0.208851 -2.888867,-0.730914 -4.61171,-2.314502 -5.168601,-4.7509 2.506007,0.06961 4.663871,-0.104779 6.473767,-0.522438 1.844697,-0.452473 3.375908,-1.044005 4.594106,-1.774925 1.218198,-0.730917 2.140622,-1.548589 2.767123,-2.453537 0.626503,-0.904946 0.991899,-1.82737 1.096314,-2.767122 0.03781,-0.352909 0.03229,-0.702707 0.0063,-1.051074 -2.562538,-0.318973 -5.150548,-0.569447 -7.756621,-0.770332 -0.150432,0.707449 -0.35406,1.444936 -0.655062,2.238488 -0.382863,0.974557 -0.887514,1.897601 -1.514016,2.767743 -0.626502,0.835335 -1.374543,1.548874 -2.244685,2.140571 -0.870141,0.591696 -1.862195,0.904714 -2.975975,0.939518 -0.06962,-0.626499 -0.05235,-1.288282 0.05206,-1.984395 0.104423,-0.696114 0.260929,-1.444155 0.469761,-2.244686 0.417667,-1.601058 0.905067,-2.923382 1.461958,-3.967553 0.03956,-0.07419 0.0811,-0.126412 0.12085,-0.198314 -0.934914,-0.03797 -1.863225,-0.09394 -2.804928,-0.112791 -1.043499,-0.02089 -2.0928,-0.02623 -3.146401,-0.01859 z m -12.708935,0.717654 c -2.233551,0.241041 -4.485104,0.533841 -6.766283,0.914731 0.01021,0.01986 0.0234,0.03442 0.03346,0.05452 0.313251,0.591696 0.539389,1.287983 0.678612,2.088513 0.139223,0.800528 0.157088,1.653327 0.05268,2.558271 -0.06961,0.696114 -0.157112,1.391779 -0.261528,2.087893 -0.104423,0.661306 -0.191298,1.30584 -0.260911,1.932338 -0.06962,0.591696 -0.13924,1.130842 -0.208851,1.618132 -0.0348,0.452466 -0.0348,0.800621 0,1.044256 0.06962,0.765726 0.20887,1.496506 0.417703,2.192628 0.243639,0.696103 0.609034,1.322148 1.096314,1.87904 0.522085,0.522084 1.183247,0.974979 1.983775,1.357843 0.800532,0.348039 1.809837,0.556951 3.028033,0.626556 0.835335,0.06956 1.688131,0.06956 2.558273,0 0.904944,-0.10446 1.740487,-0.243678 2.506213,-0.417704 0.80053,-0.208843 1.514067,-0.452233 2.140571,-0.730671 0.626499,-0.313248 1.113903,-0.678638 1.461958,-1.096313 l 0.573876,-0.783348 -1.20043,-0.731288 -0.418322,0.574496 c -0.591695,0.661299 -1.200484,1.131462 -1.826983,1.4099 -0.626515,0.278452 -1.235289,0.139192 -1.826982,-0.417701 -0.522088,-0.522083 -0.852976,-1.200514 -0.992199,-2.035836 -0.104423,-0.835341 -0.138919,-1.758372 -0.104115,-2.767743 0.06961,-1.044174 0.138619,-2.123108 0.20823,-3.236883 0.06962,-1.11378 0.03512,-2.192714 -0.104115,-3.236883 -0.104423,-0.765724 -0.29605,-1.496517 -0.574496,-2.192628 -0.278444,-0.696112 -0.696215,-1.322769 -1.253107,-1.879661 -0.275143,-0.292339 -0.589795,-0.562657 -0.941379,-0.812474 z m -10.099226,1.55058 c -3.312082,0.650961 -6.669655,1.437229 -10.094267,2.42317 l -1.575371,5.870764 c -0.382858,1.531452 -0.52212,2.802015 -0.417702,3.811379 0.104423,1.009371 0.400184,1.827659 0.887464,2.454156 0.487276,0.591696 1.148439,1.026718 1.983775,1.305164 0.835336,0.243617 1.775634,0.382253 2.819802,0.417083 0.661307,0.03482 1.322466,0.03482 1.983776,0 0.661305,-0.06957 1.356973,-0.155872 2.087893,-0.26029 l 0.20885,-0.835404 c -0.730918,-0.800529 -1.07844,-1.60157 -1.043636,-2.402097 0.0348,-0.835342 0.138938,-1.548244 0.312966,-2.139952 z m 59.958882,1.99741 c -0.584567,1.964169 -0.821155,3.773922 -0.666836,5.40968 0.174027,1.8447 0.74769,3.427679 1.722247,4.75028 0.974557,1.287818 2.314742,2.297739 4.020231,3.028652 1.705465,0.696093 3.706815,1.060864 6.003995,1.095694 1.74028,0.03482 3.44587,-0.173455 5.11655,-0.625934 1.70547,-0.452476 3.25395,-1.114271 4.64616,-1.984396 0.39,-0.247315 0.76279,-0.513509 1.12421,-0.792024 l -2.89541,10.764205 c -0.24369,1.044163 -0.34843,2.105846 -0.31359,3.184823 0,1.113792 0.19163,2.123092 0.5745,3.028032 0.38285,0.904964 0.97439,1.635735 1.77492,2.192625 0.80054,0.591693 1.8622,0.887467 3.18482,0.887467 0.87015,-0.03478 1.7747,-0.225822 2.71444,-0.573871 0.93975,-0.313261 1.75867,-0.766174 2.45479,-1.357842 l -0.20948,-0.469765 c -0.59169,0.10446 -1.02669,-0.104459 -1.30515,-0.626554 -0.10435,-0.278446 -0.17403,-0.643836 -0.20886,-1.096318 -0.0348,-0.417667 -0.0348,-0.87057 0,-1.357842 0.0696,-0.487285 0.13925,-0.974041 0.20886,-1.461338 0.0695,-0.452471 0.15709,-0.835744 0.26151,-1.148991 0.52208,-1.983929 1.04337,-3.967414 1.56547,-5.951332 0.52207,-1.949102 1.06185,-3.915966 1.61875,-5.899886 l -0.052,0.365645 c 0.52208,1.113786 1.21834,1.949327 2.0885,2.506213 0.90494,0.522093 1.89638,0.817847 2.97537,0.887464 1.98393,0.174013 3.77702,-0.156864 5.37807,-0.992199 1.63588,-0.83532 3.02781,-1.948773 4.1764,-3.341 0.41023,-0.509672 0.77799,-1.049775 1.12607,-1.603877 -3.08276,-0.322872 -6.14655,-0.729237 -9.19441,-1.206626 -0.20642,0.363663 -0.4343,0.713415 -0.70278,1.035578 -0.34806,0.417676 -0.71346,0.782447 -1.09632,1.095695 -0.38287,0.278446 -0.7834,0.487327 -1.20106,0.626553 -0.41768,0.139248 -0.80031,0.157095 -1.14837,0.05267 -0.38287,-0.104422 -0.67862,-0.278792 -0.88747,-0.522437 -0.20882,-0.243635 -0.36533,-0.522156 -0.46975,-0.835404 -0.0695,-0.313259 -0.10472,-0.643526 -0.10472,-0.991578 0.0348,-0.382873 0.087,-0.748883 0.15679,-1.096935 0.0257,-0.08988 0.0476,-0.179716 0.0731,-0.269585 -2.99048,-0.538476 -5.97339,-1.120205 -8.95149,-1.73588 l -0.8794,3.269108 c -0.31918,0.289356 -0.63772,0.578853 -1.00026,0.82487 -0.93975,0.6613 -2.01869,1.131452 -3.23688,1.4099 -1.2182,0.243634 -2.54113,0.174013 -3.96817,-0.208852 -2.88886,-0.730913 -4.6117,-2.314502 -5.1686,-4.750899 2.50602,0.06961 4.66386,-0.104779 6.47377,-0.522438 1.15676,-0.283733 2.17579,-0.628714 3.08628,-1.021945 -1.63835,-0.351142 -3.27647,-0.690721 -4.91637,-1.047355 -0.36297,-0.07894 -0.72884,-0.155279 -1.09197,-0.23426 -0.25589,0.216777 -0.50324,0.442051 -0.78459,0.633371 -0.87014,0.591697 -1.86221,0.904715 -2.97597,0.93952 -0.0695,-0.6265 -0.0523,-1.288284 0.052,-1.984396 0.0171,-0.113972 0.057,-0.250737 0.0768,-0.367503 -3.061866,-0.661015 -6.138401,-1.29115 -9.224772,-1.908789 z m 97.707017,5.148152 c -0.45247,1.253003 -0.97437,2.245051 -1.56607,2.975974 -0.55688,0.696111 -1.14844,1.218023 -1.77491,1.566074 -0.62651,0.313249 -1.27042,0.46976 -1.93173,0.46976 -0.6265,0 -1.23591,-0.08685 -1.82761,-0.260909 -0.80055,-0.278438 -1.40931,-0.835467 -1.82698,-1.67081 -0.28748,-0.65336 -0.38842,-1.336007 -0.30305,-2.048229 -3.15017,0.815912 -6.25305,1.454644 -9.32083,1.960227 0.0213,0.187048 0.0346,0.379173 0.0694,0.558383 0.0225,0.112434 0.0566,0.214332 0.0829,0.323503 -0.43396,0.450387 -0.90759,0.840204 -1.44336,1.137835 -0.5917,0.31326 -1.2011,0.382872 -1.82761,0.208851 -0.59169,-0.174038 -1.06185,-0.504297 -1.4099,-0.991578 -0.111,-0.172793 -0.17705,-0.366747 -0.22248,-0.570158 -3.28397,0.389521 -6.52833,0.6274 -9.73606,0.721994 -0.0758,0.05094 -0.14823,0.118156 -0.22559,0.161131 -0.62651,0.313249 -1.27043,0.46976 -1.93171,0.46976 -0.62651,0 -1.23528,-0.08685 -1.82698,-0.260909 -0.22917,-0.0797 -0.43808,-0.188882 -0.63585,-0.314206 -3.58767,-0.03426 -7.13712,-0.221067 -10.65576,-0.536072 0.25992,1.06229 0.69274,1.977933 1.31941,2.729938 0.73093,0.835343 1.61886,1.461997 2.66302,1.879661 1.07897,0.417666 2.2454,0.625934 3.4984,0.625934 1.1486,0 2.31379,-0.155899 3.49719,-0.46914 1.18338,-0.348062 2.29742,-0.870573 3.34161,-1.566694 0.61629,-0.397606 1.18895,-0.882839 1.73713,-1.416718 0.20953,0.629342 0.51503,1.175089 0.92899,1.62557 1.21818,1.287798 3.23679,1.931719 6.05606,1.931719 1.18339,0 2.28022,-0.138627 3.28955,-0.417085 1.00938,-0.278436 1.91391,-0.766464 2.71445,-1.462577 0.56475,-0.470635 1.06394,-1.072479 1.53324,-1.734022 0.19416,0.357011 0.40836,0.697624 0.6631,1.003352 0.73091,0.835343 1.61823,1.461997 2.66239,1.879661 1.07899,0.417666 2.2448,0.625934 3.49779,0.625934 1.1486,0 2.31439,-0.155899 3.4978,-0.46914 1.18339,-0.348062 2.29745,-0.870573 3.34161,-1.566694 1.07899,-0.696113 2.05378,-1.601289 2.92393,-2.715065 0.87014,-1.148582 1.56641,-2.540538 2.0885,-4.176405 z" />
    <g
       id="g82"
       transform="matrix(1.1992632,0,0,1.1992632,-0.67051976,-37.678132)">
      <g
         id="g55"
         transform="matrix(0.01320574,0.75781876,-0.75781876,0.01320574,92.468295,70.603104)">
        <circle
           style="opacity:0.507998;fill:#ffffff;stroke:none;stroke-width:0.0954644;stroke-linecap:round;stroke-linejoin:round;stroke-dasharray:none"
           id="path53"
           cx="22.493029"
           cy="91.344582"
           r="1.4031651" />
        <circle
           style="opacity:0.507998;fill:#ffffff;stroke:none;stroke-width:0.0635684;stroke-linecap:round;stroke-linejoin:round;stroke-dasharray:none"
           id="circle54"
           cx="23.150763"
           cy="94.244461"
           r="0.93434721" />
        <circle
           style="opacity:0.507998;fill:#ffffff;stroke:none;stroke-width:0.0443761;stroke-linecap:round;stroke-linejoin:round;stroke-dasharray:none"
           id="circle55"
           cx="24.833466"
           cy="92.933739"
           r="0.65225255" />
      </g>
      <g
         id="g58"
         transform="matrix(0.87664405,0,0,0.87664405,16.644701,9.4330997)">
        <circle
           style="opacity:0.507998;fill:#ffffff;stroke:none;stroke-width:0.0954644;stroke-linecap:round;stroke-linejoin:round;stroke-dasharray:none"
           id="circle56"
           cx="22.493029"
           cy="91.344582"
           r="1.4031651" />
        <circle
           style="opacity:0.507998;fill:#ffffff;stroke:none;stroke-width:0.0635684;stroke-linecap:round;stroke-linejoin:round;stroke-dasharray:none"
           id="circle57"
           cx="23.150763"
           cy="94.244461"
           r="0.93434721" />
        <circle
           style="opacity:0.507998;fill:#ffffff;stroke:none;stroke-width:0.0443761;stroke-linecap:round;stroke-linejoin:round;stroke-dasharray:none"
           id="circle58"
           cx="24.833466"
           cy="92.933739"
           r="0.65225255" />
      </g>
      <g
         id="g61"
         transform="matrix(-0.20946912,0.69388419,0.69388419,0.20946912,-6.8759267,61.805027)">
        <circle
           style="opacity:0.507998;fill:#ffffff;stroke:none;stroke-width:0.0954644;stroke-linecap:round;stroke-linejoin:round;stroke-dasharray:none"
           id="circle59"
           cx="22.493029"
           cy="91.344582"
           r="1.4031651" />
        <circle
           style="opacity:0.507998;fill:#ffffff;stroke:none;stroke-width:0.0635684;stroke-linecap:round;stroke-linejoin:round;stroke-dasharray:none"
           id="circle60"
           cx="23.150763"
           cy="94.244461"
           r="0.93434721" />
        <circle
           style="opacity:0.507998;fill:#ffffff;stroke:none;stroke-width:0.0443761;stroke-linecap:round;stroke-linejoin:round;stroke-dasharray:none"
           id="circle61"
           cx="24.833466"
           cy="92.933739"
           r="0.65225255" />
      </g>
      <g
         id="g64"
         transform="matrix(0.9550144,-0.28779809,0.28779809,0.9550144,19.52442,7.1014384)">
        <circle
           style="opacity:0.507998;fill:#ffffff;stroke:none;stroke-width:0.0954644;stroke-linecap:round;stroke-linejoin:round;stroke-dasharray:none"
           id="circle62"
           cx="22.493029"
           cy="91.344582"
           r="1.4031651" />
        <circle
           style="opacity:0.507998;fill:#ffffff;stroke:none;stroke-width:0.0635684;stroke-linecap:round;stroke-linejoin:round;stroke-dasharray:none"
           id="circle63"
           cx="23.150763"
           cy="94.244461"
           r="0.93434721" />
        <circle
           style="opacity:0.507998;fill:#ffffff;stroke:none;stroke-width:0.0443761;stroke-linecap:round;stroke-linejoin:round;stroke-dasharray:none"
           id="circle64"
           cx="24.833466"
           cy="92.933739"
           r="0.65225255" />
      </g>
      <g
         id="g67"
         transform="matrix(-0.0479188,0.74894428,-0.74894428,-0.0479188,151.20649,80.062287)">
        <circle
           style="opacity:0.507998;fill:#ffffff;stroke:none;stroke-width:0.0954644;stroke-linecap:round;stroke-linejoin:round;stroke-dasharray:none"
           id="circle65"
           cx="22.493029"
           cy="91.344582"
           r="1.4031651" />
        <circle
           style="opacity:0.507998;fill:#ffffff;stroke:none;stroke-width:0.0635684;stroke-linecap:round;stroke-linejoin:round;stroke-dasharray:none"
           id="circle66"
           cx="23.150763"
           cy="94.244461"
           r="0.93434721" />
        <circle
           style="opacity:0.507998;fill:#ffffff;stroke:none;stroke-width:0.0443761;stroke-linecap:round;stroke-linejoin:round;stroke-dasharray:none"
           id="circle67"
           cx="24.833466"
           cy="92.933739"
           r="0.65225255" />
      </g>
      <g
         id="g70"
         transform="matrix(0.80497539,0.51572432,-0.51572432,0.80497539,128.80852,24.350346)">
        <circle
           style="opacity:0.507998;fill:#ffffff;stroke:none;stroke-width:0.0954644;stroke-linecap:round;stroke-linejoin:round;stroke-dasharray:none"
           id="circle68"
           cx="22.493029"
           cy="91.344582"
           r="1.4031651" />
        <circle
           style="opacity:0.507998;fill:#ffffff;stroke:none;stroke-width:0.0635684;stroke-linecap:round;stroke-linejoin:round;stroke-dasharray:none"
           id="circle69"
           cx="23.150763"
           cy="94.244461"
           r="0.93434721" />
        <circle
           style="opacity:0.507998;fill:#ffffff;stroke:none;stroke-width:0.0443761;stroke-linecap:round;stroke-linejoin:round;stroke-dasharray:none"
           id="circle70"
           cx="24.833466"
           cy="92.933739"
           r="0.65225255" />
      </g>
      <g
         id="g73"
         transform="matrix(0.01320574,0.75781876,-0.75781876,0.01320574,181.23445,78.010921)">
        <circle
           style="opacity:0.507998;fill:#ffffff;stroke:none;stroke-width:0.0954644;stroke-linecap:round;stroke-linejoin:round;stroke-dasharray:none"
           id="circle71"
           cx="22.493029"
           cy="91.344582"
           r="1.4031651" />
        <circle
           style="opacity:0.507998;fill:#ffffff;stroke:none;stroke-width:0.0635684;stroke-linecap:round;stroke-linejoin:round;stroke-dasharray:none"
           id="circle72"
           cx="23.150763"
           cy="94.244461"
           r="0.93434721" />
        <circle
           style="opacity:0.507998;fill:#ffffff;stroke:none;stroke-width:0.0443761;stroke-linecap:round;stroke-linejoin:round;stroke-dasharray:none"
           id="circle73"
           cx="24.833466"
           cy="92.933739"
           r="0.65225255" />
      </g>
      <g
         id="g76"
         transform="matrix(0.58811512,0.27497476,0.27497476,-0.58811512,100.40044,145.55726)">
        <circle
           style="opacity:0.507998;fill:#ffffff;stroke:none;stroke-width:0.0954644;stroke-linecap:round;stroke-linejoin:round;stroke-dasharray:none"
           id="circle74"
           cx="22.493029"
           cy="91.344582"
           r="1.4031651" />
        <circle
           style="opacity:0.507998;fill:#ffffff;stroke:none;stroke-width:0.0635684;stroke-linecap:round;stroke-linejoin:round;stroke-dasharray:none"
           id="circle75"
           cx="23.150763"
           cy="94.244461"
           r="0.93434721" />
        <circle
           style="opacity:0.507998;fill:#ffffff;stroke:none;stroke-width:0.0443761;stroke-linecap:round;stroke-linejoin:round;stroke-dasharray:none"
           id="circle76"
           cx="24.833466"
           cy="92.933739"
           r="0.65225255" />
      </g>
      <g
         id="g79"
         transform="matrix(-0.14675083,-0.84766756,0.84766756,-0.14675083,58.872387,218.34189)">
        <circle
           style="opacity:0.507998;fill:#ffffff;stroke:none;stroke-width:0.0627261;stroke-linecap:round;stroke-linejoin:round;stroke-dasharray:none"
           id="circle77"
           cx="-78.126488"
           cy="138.16374"
           r="0.92196786"
           transform="rotate(-81.330917)" />
        <circle
           style="opacity:0.507998;fill:#ffffff;stroke:none;stroke-width:0.0417684;stroke-linecap:round;stroke-linejoin:round;stroke-dasharray:none"
           id="circle78"
           cx="-77.694313"
           cy="140.06914"
           r="0.61392498"
           transform="rotate(-81.330917)" />
      </g>
      <g
         id="g81"
         transform="matrix(-0.69161496,-0.04235674,0.04235674,-0.69161496,163.12575,161.56963)">
        <circle
           style="opacity:0.507998;fill:#ffffff;stroke:none;stroke-width:0.0954644;stroke-linecap:round;stroke-linejoin:round;stroke-dasharray:none"
           id="circle79"
           cx="22.493029"
           cy="91.344582"
           r="1.4031651" />
        <circle
           style="opacity:0.507998;fill:#ffffff;stroke:none;stroke-width:0.0635684;stroke-linecap:round;stroke-linejoin:round;stroke-dasharray:none"
           id="circle80"
           cx="23.150763"
           cy="94.244461"
           r="0.93434721" />
        <circle
           style="opacity:0.507998;fill:#ffffff;stroke:none;stroke-width:0.0443761;stroke-linecap:round;stroke-linejoin:round;stroke-dasharray:none"
           id="circle81"
           cx="24.833466"
           cy="92.933739"
           r="0.65225255" />
      </g>
    </g>
    <path
       id="path89"
       style="font-size:55.4604px;font-family:Bungasai;-inkscape-font-specification:'Bungasai, Normal';letter-spacing:-2.38125px;opacity:1;fill:#fffefd;fill-opacity:1;stroke:none;stroke-width:1.03843;stroke-linecap:round;stroke-linejoin:round;filter:url(#filter96)"
       d="m 38.705029,29.727414 c -0.878541,0.0064 -1.760673,0.0236 -2.645833,0.04909 -0.64828,0.837452 -1.16877,1.793516 -1.547193,2.881478 -0.638494,1.886464 -0.885636,3.598961 -0.740523,5.137154 0.145114,1.538194 0.623974,2.858154 1.436605,3.960999 0.812629,1.073841 1.930145,1.915958 3.35225,2.525427 1.422104,0.580434 3.090927,0.884596 5.006413,0.913639 1.451125,0.02904 2.872809,-0.144635 4.265889,-0.521932 1.422104,-0.377295 2.713799,-0.92913 3.874699,-1.654679 0.824487,-0.522849 1.567407,-1.13464 2.238623,-1.824695 0.02542,0.06978 0.04442,0.146482 0.07183,0.213941 0.406316,0.899699 0.928849,1.640086 1.567347,2.220536 0.638495,0.551429 1.378366,0.957845 2.220019,1.219047 0.841653,0.232182 1.712029,0.347782 2.611727,0.347782 1.335037,0 2.612344,-0.20294 3.831291,-0.609265 1.247969,-0.435334 2.263751,-1.030318 3.047359,-1.784904 0.783607,-0.783611 1.248084,-1.697663 1.393197,-2.742468 0.145112,-1.073842 -0.188857,-2.249409 -1.00149,-3.5264 -0.522404,-0.841652 -1.103,-1.770087 -1.741495,-2.785876 -0.326667,-0.519697 -0.580058,-0.907211 -0.868681,-1.358574 -3.30734,-0.605213 -6.636057,-1.15973 -10.011792,-1.591634 0.09095,0.867748 0.452296,1.792641 1.085722,2.775541 0.580449,0.870677 1.161046,1.785242 1.741495,2.742985 0.580451,0.957745 1.16053,1.843021 1.740979,2.655652 h -0.04341 c 0.69654,1.044813 1.030512,1.915708 1.001489,2.612244 -0.02902,0.696545 -0.290549,1.218562 -0.783931,1.566829 -0.406316,0.290245 -0.928852,0.420751 -1.567346,0.391708 -0.638498,-0.02904 -1.262763,-0.246876 -1.872237,-0.65319 -0.580451,-0.406317 -1.088084,-1.015165 -1.523422,-1.827796 -0.09523,-0.184112 -0.175198,-0.384329 -0.249597,-0.590661 0.06661,-0.0802 0.138762,-0.154541 0.203605,-0.236678 0.870676,-1.102861 1.480043,-2.394554 1.828312,-3.874699 l -0.870747,-0.260966 c -0.290227,0.957744 -0.72593,1.857401 -1.306381,2.69906 -0.05439,0.08014 -0.125489,0.143567 -0.182417,0.221175 -0.04501,-0.371935 -0.07596,-0.758803 -0.07596,-1.17874 l -0.73949,0.130225 c 0,0.676355 0.04676,1.298777 0.139527,1.868103 -0.360463,0.370507 -0.752055,0.709603 -1.187525,1.005107 -0.783609,0.551422 -1.683271,0.943456 -2.69906,1.175639 -1.015789,0.203152 -2.118401,0.145099 -3.308325,-0.17415 -2.408869,-0.609469 -3.845453,-1.929937 -4.309814,-3.961515 2.089622,0.05805 3.888947,-0.08737 5.39812,-0.435633 1.538192,-0.377292 2.814985,-0.870539 3.830774,-1.480013 1.015789,-0.609472 1.784948,-1.291283 2.307352,-2.04587 0.522407,-0.754585 0.82709,-1.523744 0.914157,-2.307352 0.03153,-0.294271 0.02692,-0.585949 0.0052,-0.876433 -2.13676,-0.265974 -4.294761,-0.474831 -6.467822,-0.642338 -0.125437,0.589903 -0.295231,1.204853 -0.54622,1.866553 -0.319249,0.81263 -0.74005,1.582306 -1.262455,2.30787 -0.522406,0.69654 -1.146156,1.291521 -1.871721,1.784904 -0.725562,0.493383 -1.552782,0.754392 -2.481502,0.783414 -0.05805,-0.522404 -0.04365,-1.074229 0.04341,-1.654679 0.08707,-0.580452 0.217574,-1.204202 0.391708,-1.871721 0.34827,-1.335035 0.754686,-2.437649 1.219047,-3.308325 0.03299,-0.06186 0.06763,-0.105409 0.100769,-0.165364 -0.779574,-0.03167 -1.553642,-0.07833 -2.338876,-0.09405 -0.870117,-0.01742 -1.745072,-0.02188 -2.623612,-0.0155 z m -10.597286,0.598413 c -1.862435,0.200991 -3.739883,0.445141 -5.642033,0.762744 0.0085,0.01656 0.01951,0.0287 0.0279,0.04547 0.261202,0.493383 0.449767,1.073978 0.565857,1.741496 0.116091,0.667517 0.130987,1.378619 0.04393,2.133203 -0.05805,0.580451 -0.131006,1.160528 -0.218074,1.740979 -0.08707,0.551427 -0.159513,1.088869 -0.217558,1.611271 -0.05805,0.493384 -0.116105,0.942947 -0.17415,1.349272 -0.02902,0.377287 -0.02902,0.667594 0,0.870748 0.05805,0.638497 0.174165,1.247855 0.3483,1.828312 0.203156,0.580442 0.50784,1.102467 0.914156,1.566829 0.435338,0.435337 0.986645,0.812982 1.654162,1.132231 0.667519,0.290211 1.509123,0.464411 2.524911,0.522451 0.69654,0.058 1.40764,0.058 2.133203,0 0.754584,-0.0871 1.451297,-0.20319 2.089795,-0.348301 0.667517,-0.174143 1.262497,-0.377092 1.784904,-0.609266 0.522404,-0.2612 0.928823,-0.565879 1.219047,-0.914156 l 0.478524,-0.65319 -1.000973,-0.609782 -0.348816,0.479041 c -0.493382,0.551422 -1.001017,0.943465 -1.523421,1.175639 -0.522417,0.232185 -1.03004,0.116064 -1.523421,-0.348299 -0.43534,-0.435336 -0.711249,-1.001043 -0.82734,-1.697571 -0.08707,-0.696546 -0.115836,-1.466211 -0.08682,-2.30787 0.05805,-0.870679 0.115587,-1.770344 0.173632,-2.69906 0.05805,-0.92872 0.02928,-1.828384 -0.08682,-2.69906 -0.08707,-0.638495 -0.24686,-1.247863 -0.479041,-1.828312 C 29.705418,31.990196 29.357061,31.467661 28.8927,31.0033 28.663273,30.759534 28.400902,30.534131 28.107735,30.325822 Z m -8.421191,1.292944 c -2.761765,0.542801 -5.561462,1.198426 -8.417058,2.020549 l -1.3136154,4.895308 c -0.319245,1.276995 -0.435367,2.336448 -0.348299,3.178101 0.08707,0.841659 0.333691,1.523985 0.7400074,2.046386 0.406313,0.493384 0.957621,0.856124 1.654162,1.088306 0.696541,0.203138 1.480603,0.318739 2.351278,0.347782 0.551428,0.02904 1.102733,0.02904 1.654163,0 0.551426,-0.05801 1.131505,-0.129973 1.740979,-0.217041 l 0.174149,-0.696598 c -0.609473,-0.667517 -0.899253,-1.335462 -0.870231,-2.002978 0.02902,-0.696546 0.115853,-1.290996 0.260966,-1.784388 z m 49.996431,1.665531 c -0.487438,1.637813 -0.684715,3.146867 -0.556038,4.510836 0.145112,1.538194 0.623458,2.858154 1.436088,3.960999 0.81263,1.073841 1.930137,1.915958 3.35225,2.525427 1.422095,0.580434 3.090921,0.884596 5.006413,0.913639 1.451128,0.02904 2.873324,-0.144635 4.266406,-0.521932 1.422103,-0.377295 2.713297,-0.92913 3.874182,-1.654679 0.325199,-0.206223 0.636051,-0.428188 0.937411,-0.660425 l -2.414323,8.975681 c -0.203186,0.87067 -0.290526,1.75595 -0.261483,2.65565 0,0.92873 0.159793,1.77033 0.47904,2.52491 0.319249,0.7546 0.812496,1.36395 1.480014,1.82831 0.667525,0.49338 1.55279,0.74001 2.655651,0.74001 0.725566,-0.029 1.479824,-0.1883 2.263424,-0.47852 0.78361,-0.26121 1.46646,-0.63887 2.04691,-1.13223 l -0.17467,-0.39171 c -0.49338,0.0871 -0.85611,-0.0871 -1.0883,-0.52245 -0.087,-0.23218 -0.14511,-0.53686 -0.17415,-0.91416 -0.029,-0.34827 -0.029,-0.72592 0,-1.13223 0.0581,-0.40632 0.11611,-0.8122 0.17415,-1.21853 0.058,-0.37729 0.13099,-0.69688 0.21807,-0.95808 0.43533,-1.65429 0.87,-3.30821 1.30535,-4.96249 0.43533,-1.62525 0.88542,-3.265311 1.34979,-4.919593 l -0.04341,0.304891 c 0.43534,0.928726 1.01591,1.625438 1.74149,2.089795 0.75458,0.435344 1.58129,0.681957 2.480992,0.740007 1.65429,0.1451 3.14945,-0.1308 4.48448,-0.82734 1.36407,-0.696528 2.52472,-1.624976 3.48247,-2.785877 0.34207,-0.424989 0.64872,-0.875351 0.93896,-1.337386 -2.57054,-0.269225 -5.12526,-0.60807 -7.66671,-1.00614 -0.17212,0.303239 -0.36214,0.594878 -0.58601,0.863513 -0.29022,0.348277 -0.59491,0.652439 -0.914162,0.91364 -0.31925,0.23218 -0.65322,0.406355 -1.00149,0.522448 -0.34828,0.116111 -0.66734,0.130993 -0.95756,0.04392 -0.31925,-0.08707 -0.56587,-0.23247 -0.74001,-0.435632 -0.17413,-0.203154 -0.30464,-0.435398 -0.39171,-0.696598 -0.058,-0.261209 -0.08733,-0.536601 -0.08733,-0.826823 0.029,-0.319257 0.0726,-0.624452 0.13074,-0.914673 0.0214,-0.07494 0.03968,-0.149856 0.06098,-0.224793 -2.49359,-0.449005 -4.98087,-0.934077 -7.464143,-1.447456 l -0.733288,2.725931 c -0.266155,0.241279 -0.531763,0.482674 -0.834058,0.687814 -0.783611,0.551422 -1.683282,0.943456 -2.69906,1.175639 -1.015794,0.203152 -2.118914,0.145099 -3.308842,-0.17415 -2.408866,-0.609469 -3.845452,-1.929937 -4.309814,-3.961515 2.089627,0.05805 3.888943,-0.08737 5.39812,-0.435633 0.964562,-0.236589 1.814271,-0.52425 2.573486,-0.852144 -1.366139,-0.292798 -2.73207,-0.575955 -4.099491,-0.873332 -0.302669,-0.06582 -0.607749,-0.129479 -0.910539,-0.195337 -0.213372,0.180759 -0.419619,0.368603 -0.654224,0.528134 -0.725564,0.493383 -1.552791,0.754392 -2.481502,0.783414 -0.05801,-0.522404 -0.04364,-1.074229 0.04341,-1.654679 0.01425,-0.09503 0.04749,-0.209076 0.06408,-0.306441 -2.553125,-0.551184 -5.118481,-1.076619 -7.692037,-1.591635 z m 81.472547,4.292762 c -0.3773,1.044811 -0.81247,1.872025 -1.30586,2.481502 -0.46436,0.580449 -0.95762,1.015643 -1.48001,1.305863 -0.52241,0.261202 -1.05933,0.391708 -1.61076,0.391708 -0.52241,0 -1.03056,-0.07242 -1.52394,-0.217558 -0.66753,-0.232174 -1.17515,-0.696651 -1.52342,-1.393197 -0.23971,-0.544802 -0.32388,-1.114024 -0.2527,-1.707906 -2.62675,0.680344 -5.21407,1.212948 -7.77213,1.634526 0.0178,0.155968 0.0288,0.316171 0.0579,0.465605 0.0188,0.09375 0.0472,0.17872 0.0692,0.269751 -0.36185,0.375553 -0.75679,0.7006 -1.20354,0.948779 -0.49339,0.26121 -1.00153,0.319256 -1.52394,0.174149 -0.49338,-0.145121 -0.88542,-0.420506 -1.17564,-0.826823 -0.0926,-0.144083 -0.14763,-0.30581 -0.18552,-0.475423 -2.73831,0.3248 -5.44361,0.523154 -8.11836,0.602031 -0.0632,0.04248 -0.1236,0.09852 -0.18811,0.134358 -0.52241,0.261202 -1.05934,0.391708 -1.61075,0.391708 -0.52241,0 -1.03003,-0.07242 -1.52342,-0.217558 -0.19109,-0.06646 -0.36529,-0.157499 -0.5302,-0.261999 -2.99156,-0.02857 -5.95125,-0.184336 -8.88525,-0.447002 0.21673,0.885786 0.57764,1.64929 1.10019,2.276347 0.60947,0.696546 1.34987,1.219079 2.22054,1.567346 0.8997,0.348269 1.87232,0.521932 2.91713,0.521932 0.95775,0 1.92934,-0.129996 2.91611,-0.39119 0.98675,-0.29023 1.9157,-0.725923 2.78639,-1.30638 0.51389,-0.331542 0.9914,-0.736152 1.44849,-1.181324 0.17472,0.524774 0.42945,0.979842 0.77463,1.355473 1.01578,1.073825 2.69899,1.610755 5.04982,1.610755 0.98677,0 1.90135,-0.115593 2.74298,-0.347783 0.84166,-0.232174 1.59591,-0.639113 2.26343,-1.219564 0.47091,-0.392437 0.88716,-0.894281 1.27848,-1.445906 0.16191,0.297692 0.34051,0.581711 0.55293,0.836641 0.60947,0.696546 1.34936,1.219079 2.22002,1.567346 0.89971,0.348269 1.87182,0.521932 2.91662,0.521932 0.95775,0 1.92984,-0.129996 2.91662,-0.39119 0.98676,-0.29023 1.91572,-0.725923 2.78639,-1.30638 0.89971,-0.580451 1.71253,-1.335227 2.4381,-2.263945 0.72556,-0.957739 1.30615,-2.118415 1.74149,-3.482475 z"
       transform="matrix(1.1992632,0,0,1.1992632,10.095664,27.84099)" />
  </g>
</svg>
